<?xml version="1.0" encoding="UTF-8" standalone="no"?>
<!-- Created with Inkscape (http://www.inkscape.org/) -->

<svg
   width="100%"
   height="100%"
   viewBox="0 0 210 297"
   version="1.1"
   id="svg5"
   xmlns="http://www.w3.org/2000/svg"
   xmlns:svg="http://www.w3.org/2000/svg">
  <defs
     id="defs2" />
  <g
     id="layer1">
    <rect
       style="fill:#bb9400;stroke:#000000;stroke-width:0.832542;stroke-miterlimit:4;stroke-dasharray:none"
       id="rect1488"
       width="114.86641"
       height="106.92041"
       x="136.50136"
       y="12.134501"
       transform="matrix(0.82240508,0.56890236,-0.87458341,0.4848751,0,0)" />
    <rect
       style="fill:#bb9400;stroke:#000000;stroke-width:1.03338;stroke-miterlimit:4;stroke-dasharray:none"
       id="rect1936"
       width="107.95976"
       height="33.990139"
       x="117.38315"
       y="257.75235"
       transform="matrix(0.87408352,-0.48577567,0,1,0,0)" />
    <rect
       style="fill:#bb9400;stroke:#000000;stroke-width:0.803903;stroke-miterlimit:4;stroke-dasharray:none"
       id="rect2246"
       width="113.68499"
       height="35.761646"
       x="10.918944"
       y="130.02806"
       transform="matrix(0.82343046,0.5674172,0,1,0,0)" />
    <rect
       style="fill:#bb9400;stroke:#000000;stroke-width:0.734267;stroke-miterlimit:4;stroke-dasharray:none"
       id="rect1936-4"
       width="106.92042"
       height="17.327702"
       x="117.31606"
       y="257.61411"
       transform="matrix(0.87458342,-0.48487508,0,1,0,0)" />
    <rect
       style="fill:#bb9400;stroke:#000000;stroke-width:0.528459;stroke-miterlimit:4;stroke-dasharray:none"
       id="rect2246-4"
       width="113.81967"
       height="15.43545"
       x="7.2210975"
       y="132.15479"
       transform="matrix(0.82279149,0.56834334,0.02307547,0.99973373,0,0)" />
    <path
       style="fill:#008000;stroke:#000000;stroke-width:0;stroke-miterlimit:4;stroke-dasharray:none"
       d="M 230.16368,646.91519 C 143.66631,587.04442 64.377539,532.16145 53.966415,524.95305 l -18.929314,-13.1062 174.532229,-96.76291 174.53222,-96.7629 9.08044,6.31261 c 4.99425,3.47194 84.08519,58.12707 175.75767,121.45585 91.67248,63.32877 166.68374,115.4691 166.69171,115.8674 0.0116,0.60588 -297.06108,166.13063 -335.73485,187.06644 l -12.4649,6.7478 z"
       id="path2980"
       transform="scale(0.26458333)" />
    <path
       style="fill:#008000;stroke:#000000;stroke-width:0;stroke-miterlimit:4;stroke-dasharray:none"
       d="m 390.55452,803.43887 c -0.51547,-8.94559 -0.91706,-22.45638 -0.89243,-30.02397 l 0.0448,-13.75925 167.44598,-92.69392 c 92.09527,-50.98166 170.62157,-94.50687 174.50283,-96.72269 l 7.05688,-4.02876 -0.39102,30.76378 -0.39103,30.76378 -166.55939,92.3496 c -91.60766,50.79229 -169.55639,93.98457 -173.21939,95.98287 l -6.66,3.63327 z"
       id="path3019"
       transform="scale(0.26458333)" />
    <path
       style="fill:#008000;stroke:#000000;stroke-width:0;stroke-miterlimit:4;stroke-dasharray:none"
       d="M 211.09592,692.7571 36.208563,571.77943 V 545.0444 518.30937 l 3.982942,2.80188 c 2.190618,1.54103 80.238175,55.42618 173.439015,119.74476 93.20084,64.31859 170.1976,117.68653 171.10391,118.59544 1.74017,1.74514 3.83051,54.61783 2.15072,54.40019 -0.49603,-0.0643 -79.60118,-54.55682 -175.78923,-121.09454 z"
       id="path3058"
       transform="scale(0.26458333)" />
    <path
       style="fill:#784421;stroke:#000000;stroke-width:0;stroke-miterlimit:4;stroke-dasharray:none"
       d="M 212.18218,770.29946 C 117.38816,704.99826 39.003061,650.7618 37.993068,649.77399 c -1.406597,-1.3757 -1.745547,-10.19066 -1.448342,-37.66661 l 0.388008,-35.8706 172.352756,118.99485 c 94.79402,65.44716 173.17912,119.78643 174.18912,120.75393 1.40687,1.34768 1.7456,10.09483 1.44834,37.40123 l -0.38801,35.64213 z"
       id="path3134"
       transform="scale(0.26458333)" />
    <path
       style="fill:#c87137;stroke:#000000;stroke-width:0;stroke-miterlimit:4;stroke-dasharray:none"
       d="m 389.93656,854.17477 0.39175,-29.10735 175.61153,-97.36764 175.61153,-97.36763 v 28.6944 28.69441 l -176.00328,97.78058 -176.00327,97.78057 z"
       id="path3173"
       transform="scale(0.26458333)" />
    <path
       style="fill:#c87137;stroke:#000000;stroke-width:0;stroke-miterlimit:4;stroke-dasharray:none"
       d="M 347.6022,862.74305 C 328.88238,849.79713 268.26924,807.98454 212.90635,769.82617 157.54346,731.66781 95.463876,688.7885 74.951725,674.53884 l -37.29482,-25.90848 v -35.46947 -35.46947 l 3.982942,2.77989 c 2.190618,1.52895 59.056163,40.79293 126.367883,87.2533 67.31172,46.46037 143.40402,99.07063 169.09399,116.9117 l 46.70905,32.43831 v 34.65551 c 0,19.06052 -0.48882,34.63197 -1.08626,34.60322 -0.59744,-0.0287 -16.40248,-10.64438 -35.12231,-23.5903 z"
       id="path3249"
       transform="scale(0.26458333)" />
    <circle
       style="fill:#00ff00;stroke:#000000;stroke-width:0;stroke-miterlimit:4;stroke-dasharray:none"
       id="path3354"
       cx="55.18185"
       cy="137.95462"
       r="5.364902" />
    <ellipse
       style="fill:#00ff00;stroke:#000000;stroke-width:0;stroke-miterlimit:4;stroke-dasharray:none"
       id="path3356"
       cx="160.37224"
       cy="141.7867"
       rx="6.7061276"
       ry="6.8977313" />
    <ellipse
       style="fill:#00ff00;stroke:#000000;stroke-width:0;stroke-miterlimit:4;stroke-dasharray:none"
       id="path3358"
       cx="107.87285"
       cy="170.71884"
       rx="7.4725423"
       ry="6.3229203" />
    <ellipse
       style="fill:#ff0000;stroke:#000000;stroke-width:0;stroke-miterlimit:4;stroke-dasharray:none"
       id="path3382"
       cx="87.754463"
       cy="170.71884"
       rx="2.2992437"
       ry="2.10764" />
    <ellipse
       style="fill:#ff0000;stroke:#000000;stroke-width:0;stroke-miterlimit:4;stroke-dasharray:none"
       id="path3382-1"
       cx="93.502579"
       cy="158.64781"
       rx="2.2992437"
       ry="2.10764" />
    <ellipse
       style="fill:#ff0000;stroke:#000000;stroke-width:0;stroke-miterlimit:4;stroke-dasharray:none"
       id="path3382-8"
       cx="107.29803"
       cy="157.88141"
       rx="2.2992437"
       ry="2.10764" />
    <rect
       style="fill:#009bff;fill-opacity:1;stroke:#000000;stroke-width:0;stroke-miterlimit:4;stroke-dasharray:none"
       id="rect3521"
       width="104.18499"
       height="14.975807"
       x="124.21191"
       y="3.7682486"
       transform="matrix(0.65877971,0.75233589,-0.83046642,0.55706869,0,0)" />
  </g>
  <path
     style="fill:#ffcc00;stroke:#784421;stroke-width:0"
     d="m 56.320413,167.75941 c -25.247048,-17.47716 -45.983696,-31.94734 -46.08144,-32.15596 -0.154235,-0.32919 55.106159,-31.28983 55.852206,-31.29221 0.292987,-9.3e-4 68.180121,77.42554 68.177571,77.75773 -0.002,0.25477 -30.55963,17.10156 -31.39103,17.30621 -0.41254,0.10155 -17.583219,-11.55859 -46.557307,-31.61577 z m 55.007177,8.6594 c 4.47077,-2.0699 5.44759,-6.62944 2.13083,-9.94619 -4.23134,-4.23134 -12.28286,-2.03018 -13.19782,3.60808 -0.26543,1.63565 1.00646,4.45891 2.47023,5.48326 2.39156,1.67362 6.04387,2.0368 8.59676,0.85485 z M 89.517241,172.2069 c 0.417242,-0.41724 0.758621,-1.1 0.758621,-1.51724 0,-1.01953 -1.314439,-2.27587 -2.381117,-2.27587 -1.324468,0 -2.549917,1.04415 -2.549917,2.17268 0,2.16598 2.612321,3.18052 4.172413,1.62043 z m 5.754616,-12.00707 c 0.910349,-0.82385 0.881726,-2.21866 -0.06496,-3.16535 -2.12195,-2.12195 -5.554064,0.87908 -3.544659,3.09945 0.782187,0.8643 2.688923,0.89912 3.609619,0.0659 z m 13.752773,-0.72692 c 1.37323,-1.37323 0.21022,-3.95567 -1.78144,-3.95567 -0.84291,0 -2.55353,1.64011 -2.55353,2.44828 0,1.70116 3.07272,2.76964 4.33497,1.50739 z M 57.943122,142.62274 c 2.547445,-1.5532 3.419145,-4.55997 2.082152,-7.18198 -1.852108,-3.63221 -6.898271,-4.02157 -9.318517,-0.71902 -1.107344,1.51103 -1.244711,4.37959 -0.283064,5.91104 1.045599,1.66514 2.919119,2.74369 4.765962,2.74369 0.846344,0 2.063877,-0.33329 2.753467,-0.75373 z"
     id="path1041" />
  <path
     style="fill:#ffcc00;stroke:#784421;stroke-width:0"
     d="m 146.53392,174.807 1.06841,-0.90008 -33.82392,-38.62725 C 95.175247,114.03468 80.100498,96.52113 80.278964,96.360671 81.161119,95.567519 101.49042,84.587773 101.83052,84.720794 c 0.35533,0.138983 50.10555,34.487166 80.30364,55.442646 6.60741,4.58511 11.89878,8.45368 11.75862,8.59682 -0.51159,0.52246 -46.79877,26.41257 -47.82054,26.74777 -0.3337,0.10948 -0.12594,-0.20599 0.46168,-0.70103 z m 16.69425,-26.63474 c 3.66471,-1.53121 5.15685,-6.9358 2.84598,-10.30829 -3.90415,-5.69773 -12.45346,-3.04562 -12.45346,3.86323 0,5.12252 4.90216,8.41108 9.60748,6.44506 z"
     id="path1080" />
  <path
     style="fill:#ffcc00;stroke:#784421;stroke-width:0"
     d="m 103.36122,208.97676 c -0.153,-4.18001 -0.21304,-7.66517 -0.13341,-7.7448 0.11646,-0.11646 32.02578,-17.81638 86.23771,-47.83558 4.59612,-2.54505 5.71619,-3.02957 5.82772,-2.52097 0.0759,0.34628 0.0151,3.90886 -0.13518,7.91684 l -0.27323,7.28724 -45.38207,25.12505 c -24.96014,13.81878 -45.49036,25.18067 -45.62271,25.24865 -0.13236,0.068 -0.36583,-3.29641 -0.51883,-7.47643 z"
     id="path1119" />
  <path
     style="fill:#ffcc27;stroke:#784421;stroke-width:0;fill-opacity:1"
     d="M 97.482759,211.77197 C 91.266446,207.48607 37.32697,170.22877 21.905172,159.5687 L 9.862069,151.24411 v -6.79962 c 0,-4.91825 0.1174302,-6.72703 0.424417,-6.5373 0.233429,0.14426 5.90886,4.0502 12.612069,8.67986 6.703208,4.62965 23.026445,15.90276 36.273859,25.05134 39.845463,27.51704 42.381696,29.31778 42.606186,30.25072 0.2518,1.0464 0.79868,13.18535 0.59315,13.16586 -0.0812,-0.008 -2.28123,-1.48505 -4.888991,-3.283 z"
     id="path1158" />
  <path
     style="fill:#ffd42a;fill-opacity:1;stroke:#784421;stroke-width:0"
     d="m 147.45678,173.81358 c -0.0993,-0.36212 -8.86645,-10.56579 -19.48249,-22.6748 -18.55306,-21.16227 -37.501611,-42.95174 -44.097293,-50.70873 -1.725959,-2.029847 -3.035418,-3.856789 -2.909908,-4.059869 0.633439,-1.024926 20.539311,-11.539266 21.150571,-11.171793 0.87546,0.526306 28.78898,19.764192 56.05475,38.632712 26.93281,18.6381 35.26074,24.5096 35.25849,24.85856 -0.002,0.23952 -22.52184,12.93177 -43.46565,24.49689 -2.05798,1.13641 -2.3488,1.2091 -2.50847,0.62703 z m 16.34431,-25.78359 c 2.91162,-1.37197 4.43395,-6.509 2.83148,-9.55475 -1.79619,-3.41394 -5.90525,-4.75731 -9.39063,-3.07006 -2.3748,1.14962 -3.62125,3.29087 -3.62125,6.22084 0,5.73879 4.96452,8.86171 10.1804,6.40397 z"
     id="path1641" />
  <path
     style="fill:#ffd42a;fill-opacity:1;stroke:#784421;stroke-width:0"
     d="m 147.2941,173.39872 c -0.59236,-0.94851 -3.99021,-4.88046 -29.71122,-34.38148 C 79.888271,95.782987 80.822626,96.897289 81.623943,96.133004 82.463994,95.331775 88.626159,91.91653 95.429644,88.481496 l 6.481366,-3.272399 7.93243,5.452854 c 31.82299,21.875549 69.40987,47.915389 77.64149,53.789319 4.49616,3.20838 5.50963,4.09273 5.12069,4.46827 -0.74545,0.71974 -42.67589,24.35254 -44.34138,24.99165 -0.28843,0.11069 -0.725,-0.11993 -0.97014,-0.51247 z m 15.54998,-24.8793 c 2.84278,-1.01387 4.40902,-3.47847 4.42345,-6.96067 0.009,-2.24806 -0.54897,-3.57347 -2.13884,-5.07772 -2.94422,-2.78567 -8.11681,-2.33174 -10.43296,0.91555 -0.75212,1.05451 -0.88539,1.70252 -0.88539,4.30536 0,2.79264 0.0969,3.19103 1.0939,4.49818 1.9155,2.51135 4.93128,3.39228 7.93984,2.3193 z"
     id="path1717" />
  <path
     style="fill:#d4aa00;fill-opacity:1;stroke:#784421;stroke-width:0"
     d="m 90.617788,206.751 c -6.342369,-4.37262 -27.06434,-18.68362 -46.048822,-31.80223 l -34.517242,-23.85203 0.0965,-6.19947 c 0.05307,-3.4097 0.172881,-6.27585 0.266238,-6.3692 0.177374,-0.17738 6.644567,4.25719 55.395884,37.9851 28.316386,19.59028 35.122544,24.41812 35.667794,25.30036 0.20689,0.33475 0.8981,12.48267 0.72758,12.78707 -0.031,0.0553 -5.245563,-3.47699 -11.587931,-7.8496 z"
     id="path1832" />
  <path
     style="fill:#d4aa00;fill-opacity:1;stroke:#784421;stroke-width:0"
     d="m 103.7996,213.65379 c -0.13336,-1.41217 -0.23862,-4.78655 -0.23389,-7.49862 l 0.009,-4.93103 5.58354,-3.07682 c 3.07095,-1.69224 22.82319,-12.6352 43.89388,-24.31768 37.31042,-20.68647 41.28292,-22.86412 41.70903,-22.86412 0.28027,0 0.25206,11.99114 -0.0322,13.71035 l -0.22868,1.38276 -44.43094,24.57607 c -24.43703,13.51684 -44.79002,24.80346 -45.22888,25.08137 -0.77557,0.49115 -0.80472,0.43337 -1.04041,-2.06228 z"
     id="path1871" />
  <path
     style="fill:#784421;fill-opacity:1;stroke:#784421;stroke-width:0"
     d="m 103.32001,225.84966 c 0.14735,-4.14125 0.30244,-7.55197 0.34464,-7.57939 0.85498,-0.55553 92.07405,-50.99441 92.22375,-50.99441 0.11827,0 0.21191,3.28578 0.20808,7.30173 l -0.007,7.30172 -46.10688,25.60345 c -25.35878,14.0819 -46.2922,25.66937 -46.51871,25.74994 -0.29308,0.10424 -0.33458,-2.02466 -0.14392,-7.38304 z"
     id="path1910" />
  <path
     style="fill:#784421;fill-opacity:1;stroke:#784421;stroke-width:0"
     d="m 97.862069,232.05405 c -2.316786,-1.57933 -49.48936,-34.11188 -80.554585,-55.55444 l -7.043426,-4.86168 -0.01134,-9.18399 -0.01134,-9.184 4.267242,2.95203 c 2.346982,1.62362 16.386207,11.32269 31.198276,21.55349 14.812069,10.2308 33.331896,23.03666 41.155172,28.45747 l 14.224142,9.85602 0.10169,8.97276 c 0.0559,4.93503 -0.0294,8.96351 -0.18966,8.9522 -0.16024,-0.0113 -1.571517,-0.89325 -3.136172,-1.95986 z"
     id="path1986" />
</svg>
