<?xml version="1.0" encoding="UTF-8" standalone="no"?>
<!-- Created with Inkscape (http://www.inkscape.org/) -->

<svg
   width="100%"
   height="100%"
   viewBox="0 0 210 297"
   version="1.1"
   id="svg5"
   xmlns="http://www.w3.org/2000/svg"
   xmlns:svg="http://www.w3.org/2000/svg">
  <defs
     id="defs2" />
  <g
     id="layer1">
    <rect
       style="fill:#bb9400;stroke:#000000;stroke-width:0.832542;stroke-miterlimit:4;stroke-dasharray:none"
       id="rect1488"
       width="114.86641"
       height="106.92041"
       x="136.50136"
       y="12.134501"
       transform="matrix(0.82240508,0.56890236,-0.87458341,0.4848751,0,0)" />
    <rect
       style="fill:#bb9400;stroke:#000000;stroke-width:1.03338;stroke-miterlimit:4;stroke-dasharray:none"
       id="rect1936"
       width="107.95976"
       height="33.990139"
       x="117.38315"
       y="257.75235"
       transform="matrix(0.87408352,-0.48577567,0,1,0,0)" />
    <rect
       style="fill:#bb9400;stroke:#000000;stroke-width:0.803903;stroke-miterlimit:4;stroke-dasharray:none"
       id="rect2246"
       width="113.68499"
       height="35.761646"
       x="10.918944"
       y="130.02806"
       transform="matrix(0.82343046,0.5674172,0,1,0,0)" />
    <rect
       style="fill:#bb9400;stroke:#000000;stroke-width:0.734267;stroke-miterlimit:4;stroke-dasharray:none"
       id="rect1936-4"
       width="106.92042"
       height="17.327702"
       x="117.31606"
       y="257.61411"
       transform="matrix(0.87458342,-0.48487508,0,1,0,0)" />
    <rect
       style="fill:#bb9400;stroke:#000000;stroke-width:0.528459;stroke-miterlimit:4;stroke-dasharray:none"
       id="rect2246-4"
       width="113.81967"
       height="15.43545"
       x="7.2210975"
       y="132.15479"
       transform="matrix(0.82279149,0.56834334,0.02307547,0.99973373,0,0)" />
    <path
       style="fill:#008000;stroke:#000000;stroke-width:0;stroke-miterlimit:4;stroke-dasharray:none"
       d="M 230.16368,646.91519 C 143.66631,587.04442 64.377539,532.16145 53.966415,524.95305 l -18.929314,-13.1062 174.532229,-96.76291 174.53222,-96.7629 9.08044,6.31261 c 4.99425,3.47194 84.08519,58.12707 175.75767,121.45585 91.67248,63.32877 166.68374,115.4691 166.69171,115.8674 0.0116,0.60588 -297.06108,166.13063 -335.73485,187.06644 l -12.4649,6.7478 z"
       id="path2980"
       transform="scale(0.26458333)" />
    <path
       style="fill:#008000;stroke:#000000;stroke-width:0;stroke-miterlimit:4;stroke-dasharray:none"
       d="m 390.55452,803.43887 c -0.51547,-8.94559 -0.91706,-22.45638 -0.89243,-30.02397 l 0.0448,-13.75925 167.44598,-92.69392 c 92.09527,-50.98166 170.62157,-94.50687 174.50283,-96.72269 l 7.05688,-4.02876 -0.39102,30.76378 -0.39103,30.76378 -166.55939,92.3496 c -91.60766,50.79229 -169.55639,93.98457 -173.21939,95.98287 l -6.66,3.63327 z"
       id="path3019"
       transform="scale(0.26458333)" />
    <path
       style="fill:#008000;stroke:#000000;stroke-width:0;stroke-miterlimit:4;stroke-dasharray:none"
       d="M 211.09592,692.7571 36.208563,571.77943 V 545.0444 518.30937 l 3.982942,2.80188 c 2.190618,1.54103 80.238175,55.42618 173.439015,119.74476 93.20084,64.31859 170.1976,117.68653 171.10391,118.59544 1.74017,1.74514 3.83051,54.61783 2.15072,54.40019 -0.49603,-0.0643 -79.60118,-54.55682 -175.78923,-121.09454 z"
       id="path3058"
       transform="scale(0.26458333)" />
    <path
       style="fill:#784421;stroke:#000000;stroke-width:0;stroke-miterlimit:4;stroke-dasharray:none"
       d="M 212.18218,770.29946 C 117.38816,704.99826 39.003061,650.7618 37.993068,649.77399 c -1.406597,-1.3757 -1.745547,-10.19066 -1.448342,-37.66661 l 0.388008,-35.8706 172.352756,118.99485 c 94.79402,65.44716 173.17912,119.78643 174.18912,120.75393 1.40687,1.34768 1.7456,10.09483 1.44834,37.40123 l -0.38801,35.64213 z"
       id="path3134"
       transform="scale(0.26458333)" />
    <path
       style="fill:#c87137;stroke:#000000;stroke-width:0;stroke-miterlimit:4;stroke-dasharray:none"
       d="m 389.93656,854.17477 0.39175,-29.10735 175.61153,-97.36764 175.61153,-97.36763 v 28.6944 28.69441 l -176.00328,97.78058 -176.00327,97.78057 z"
       id="path3173"
       transform="scale(0.26458333)" />
    <path
       style="fill:#c87137;stroke:#000000;stroke-width:0;stroke-miterlimit:4;stroke-dasharray:none"
       d="M 347.6022,862.74305 C 328.88238,849.79713 268.26924,807.98454 212.90635,769.82617 157.54346,731.66781 95.463876,688.7885 74.951725,674.53884 l -37.29482,-25.90848 v -35.46947 -35.46947 l 3.982942,2.77989 c 2.190618,1.52895 59.056163,40.79293 126.367883,87.2533 67.31172,46.46037 143.40402,99.07063 169.09399,116.9117 l 46.70905,32.43831 v 34.65551 c 0,19.06052 -0.48882,34.63197 -1.08626,34.60322 -0.59744,-0.0287 -16.40248,-10.64438 -35.12231,-23.5903 z"
       id="path3249"
       transform="scale(0.26458333)" />
    <circle
       style="fill:#00ff00;stroke:#000000;stroke-width:0;stroke-miterlimit:4;stroke-dasharray:none"
       id="path3354"
       cx="55.18185"
       cy="137.95462"
       r="5.364902" />
    <ellipse
       style="fill:#00ff00;stroke:#000000;stroke-width:0;stroke-miterlimit:4;stroke-dasharray:none"
       id="path3356"
       cx="160.37224"
       cy="141.7867"
       rx="6.7061276"
       ry="6.8977313" />
    <ellipse
       style="fill:#00ff00;stroke:#000000;stroke-width:0;stroke-miterlimit:4;stroke-dasharray:none"
       id="path3358"
       cx="107.87285"
       cy="170.71884"
       rx="7.4725423"
       ry="6.3229203" />
    <ellipse
       style="fill:#ff0000;stroke:#000000;stroke-width:0;stroke-miterlimit:4;stroke-dasharray:none"
       id="path3382"
       cx="87.754463"
       cy="170.71884"
       rx="2.2992437"
       ry="2.10764" />
    <ellipse
       style="fill:#ff0000;stroke:#000000;stroke-width:0;stroke-miterlimit:4;stroke-dasharray:none"
       id="path3382-1"
       cx="93.502579"
       cy="158.64781"
       rx="2.2992437"
       ry="2.10764" />
    <ellipse
       style="fill:#ff0000;stroke:#000000;stroke-width:0;stroke-miterlimit:4;stroke-dasharray:none"
       id="path3382-8"
       cx="107.29803"
       cy="157.88141"
       rx="2.2992437"
       ry="2.10764" />
    <rect
       style="fill:#009bff;fill-opacity:1;stroke:#000000;stroke-width:0;stroke-miterlimit:4;stroke-dasharray:none"
       id="rect3521"
       width="104.18499"
       height="14.975807"
       x="124.21191"
       y="3.7682486"
       transform="matrix(0.65877971,0.75233589,-0.83046642,0.55706869,0,0)" />
  </g>
  <path
     style="fill:#ececec;stroke:#d38d5f;stroke-width:0"
     d="m 145.18827,175.67851 c 0.49201,-0.36336 1.22248,-0.92589 1.62327,-1.25007 0.7044,-0.56974 -0.39651,-1.87416 -32.9903,-39.0888 C 95.275775,114.16497 80.102217,96.733169 80.102217,96.602296 c 0,-0.130873 4.842354,-2.917774 10.760787,-6.193112 l 10.760786,-5.955161 34.50245,23.856537 c 34.42243,23.80121 55.24317,38.25093 57.12664,39.64622 l 0.99479,0.73695 -4.12845,2.33329 c -13.57531,7.67239 -44.76311,25.00329 -45.24868,25.14445 -0.31725,0.0922 -0.17427,-0.12961 0.31773,-0.49296 z m 19.06623,-28.1114 c 4.05035,-2.8069 3.78998,-9.27188 -0.47794,-11.86736 -2.55835,-1.55583 -5.58279,-1.19238 -7.96161,0.95674 -1.72108,1.55489 -2.3314,3.23534 -2.11645,5.82738 0.44304,5.34251 6.18909,8.10951 10.556,5.08324 z"
     id="path913" />
  <path
     style="fill:#ececec;stroke:#d38d5f;stroke-width:0"
     d="M 56.200059,167.72025 C 30.883091,150.1655 10.164034,135.65814 10.157711,135.48168 c -0.01315,-0.36693 55.66607,-31.31267 56.060604,-31.15771 0.142176,0.0558 15.517098,17.52961 34.166495,38.8306 27.54508,31.46147 33.8168,38.81296 33.422,39.17607 -0.2673,0.24585 -5.25921,3.08215 -11.09314,6.3029 -16.80151,9.27565 -19.35056,10.66159 -19.93411,10.8383 -0.31501,0.0954 -20.151055,-13.42614 -46.579501,-31.75159 z m 55.106301,8.81291 c 3.0325,-1.26706 4.76309,-4.47368 3.92685,-7.27608 -1.55326,-5.20523 -9.00978,-6.74056 -13.06102,-2.68932 -3.122873,3.12288 -2.282074,7.6731 1.79034,9.68891 1.83895,0.91026 5.49735,1.048 7.34383,0.27649 z m -21.555081,-4.7325 c 0.701278,-0.94338 0.71735,-1.09924 0.207395,-2.0117 -0.439242,-0.78593 -0.862635,-1.01184 -2.061334,-1.09988 -1.227564,-0.0902 -1.617128,0.0442 -2.091491,0.72147 -0.784515,1.12005 -0.733703,1.98179 0.17015,2.88565 1.054738,1.05473 2.792403,0.82665 3.77528,-0.49554 z m 5.265857,-11.43408 c 1.069039,-0.74879 1.13465,-2.89033 0.105431,-3.44115 -1.864556,-0.99788 -4.047444,7.3e-4 -4.047444,1.8519 0,1.12581 1.137528,2.15863 2.377463,2.15863 0.413401,0 1.117452,-0.25622 1.56455,-0.56938 z m 13.980404,-0.89367 c 1.92406,-1.92407 -0.32796,-4.77923 -2.82879,-3.58638 -1.39762,0.66665 -1.63472,2.87087 -0.40171,3.7345 1.12766,0.78985 2.34851,0.73387 3.2305,-0.14812 z M 57.565133,142.87205 c 2.743822,-1.14644 3.912488,-4.80598 2.396288,-7.50369 -2.174658,-3.86928 -8.062434,-3.75428 -9.710316,0.18966 -2.027284,4.85197 2.462053,9.34131 7.314028,7.31403 z"
     id="path952" />
  <path
     style="fill:#ececec;stroke:#d38d5f;stroke-width:0"
     d="m 103.74494,215.89275 c -0.0999,-0.35249 -0.29403,-3.78981 -0.43128,-7.63847 l -0.24955,-6.99756 3.6068,-2.01134 c 18.75041,-10.45616 88.36198,-48.91656 88.53675,-48.91656 0.32681,0 -0.18405,15.43936 -0.52149,15.76058 -0.15557,0.14809 -19.95178,11.1627 -43.99159,24.47691 -24.03981,13.31422 -44.39706,24.6036 -45.23833,25.08751 -1.4015,0.80616 -1.5448,0.82617 -1.71131,0.23893 z"
     id="path991" />
  <path
     style="fill:#ececec;stroke:#d38d5f;stroke-width:0"
     d="M 88.841292,189.90068 C 73.460624,179.41511 62.12654,171.58261 37.125,154.16174 12.273372,136.84533 10.549936,135.60724 10.871805,135.30186 c 0.532296,-0.50503 30.191147,-17.08561 46.14875,-25.79914 4.907456,-2.67968 9.053675,-4.79117 9.213821,-4.6922 0.384816,0.23783 14.919276,16.7132 35.477154,40.21473 25.67705,29.3537 32.13145,36.93028 31.75238,37.27296 -1.01534,0.91787 -29.97253,16.67716 -30.64374,16.67716 -0.36727,0 -6.657762,-4.08361 -13.978878,-9.07469 z m 22.819778,-13.37472 c 5.02794,-2.15131 5.18063,-8.89155 0.25794,-11.38607 -2.97275,-1.5064 -6.98642,-1.15755 -9.37952,0.81522 -1.97874,1.63119 -2.873598,4.82026 -1.99751,7.11868 0.43764,1.14815 2.18035,2.85409 3.51775,3.44352 1.45127,0.63962 6.11426,0.64493 7.60134,0.009 z m -22.164015,-4.31509 c 1.727962,-1.62333 0.66397,-3.59387 -1.940504,-3.59387 -1.689316,0 -2.333645,0.61658 -2.333645,2.23317 0,2.02931 2.66078,2.87638 4.274149,1.3607 z m 5.758222,-11.84968 c 0.830141,-0.83014 0.879676,-3.02214 0.07987,-3.53447 -0.752266,-0.48187 -3.096053,-0.29435 -3.685254,0.29485 -0.316126,0.31612 -0.574772,1.04504 -0.574772,1.61981 0,1.38778 0.874036,2.19458 2.377463,2.19458 0.675357,0 1.486569,-0.25865 1.802691,-0.57477 z m 13.804903,-0.76209 c 0.83344,-0.75425 0.86701,-2.59289 0.0635,-3.48071 -0.74106,-0.81886 -2.24559,-0.86372 -3.33668,-0.0995 -1.04222,0.73001 -1.15567,3.21803 -0.17283,3.79048 0.97828,0.5698 2.70009,0.46473 3.44596,-0.21027 z M 58.133851,142.71096 c 2.523721,-1.35348 3.412051,-5.29758 1.75264,-7.78156 -2.180602,-3.26416 -7.430282,-3.3506 -9.405357,-0.15486 -0.978663,1.58351 -1.000583,4.72335 -0.04311,6.17562 1.586094,2.40578 5.025771,3.19277 7.69583,1.7608 z"
     id="path1030" />
  <path
     style="fill:#666666;stroke:#d38d5f;stroke-width:0"
     id="path2999-2"
     d="m 72.198982,157.31047 a 3.3322606,6.3868332 0 0 1 3.33226,-6.38683 3.3322606,6.3868332 0 0 1 3.332261,6.38683 h -3.332261 z" />
  <path
     style="fill:#ececec;stroke:#d38d5f;stroke-width:0"
     d="M 94.184113,209.4968 C 89.758374,206.46158 71.488485,193.85212 53.58436,181.47576 35.680234,169.09941 18.521352,157.23829 15.45351,155.11773 l -5.5778942,-3.85558 v -6.84185 -6.84184 l 33.9245692,23.4322 c 31.055048,21.45019 57.496075,39.74547 57.836135,40.01844 0.2446,0.19634 0.81736,9.95231 0.70438,11.99806 l -0.10979,1.98821 z"
     id="path1069" />
  <rect
     style="fill:#aa0000;stroke:#d38d5f;stroke-width:0"
     id="rect1890"
     width="23.168266"
     height="23.881201"
     x="99.251724"
     y="70.621986"
     transform="matrix(0.97084345,0.23971442,0,1,0,0)" />
  <rect
     style="fill:#aa0000;stroke:#d38d5f;stroke-width:0"
     id="rect1890-6"
     width="28.82169"
     height="23.455963"
     x="138.26677"
     y="171.04875"
     transform="matrix(0.85957485,-0.51100985,0,1,0,0)" />
  <rect
     style="fill:#aa0000;stroke:#d38d5f;stroke-width:0"
     id="rect1890-6-1"
     width="28.82169"
     height="23.455963"
     x="112.09947"
     y="151.69798"
     transform="matrix(0.85957485,-0.51100985,0,1,0,0)" />
  <path
     style="fill:#502d16;stroke:#d38d5f;stroke-width:0"
     id="path2216"
     d="m 98.052792,72.847893 a 13.539265,8.6083403 0 0 1 13.539268,-8.608341 13.539265,8.6083403 0 0 1 13.53926,8.608341 h -13.53926 z"
     transform="matrix(0.97421807,0.22560842,0,1,0,0)" />
  <path
     style="fill:#502d16;stroke:#d38d5f;stroke-width:0"
     id="path2216-2"
     transform="matrix(0.97421807,0.22560842,0,1,0,0)"
     d="m 120.14317,53.133125 a 13.539265,8.6083403 0 0 1 13.53926,-8.60834 13.539265,8.6083403 0 0 1 13.53927,8.60834 h -13.53927 z" />
  <rect
     style="fill:#502d16;stroke:#d38d5f;stroke-width:0"
     id="rect2386"
     width="14.439802"
     height="32.489544"
     x="137.76257"
     y="-69.289825"
     transform="rotate(55.291205)"
     ry="2.4942758" />
  <rect
     style="fill:#502d16;stroke:#d38d5f;stroke-width:0"
     id="rect2386-8"
     width="14.439802"
     height="32.489544"
     x="130.27106"
     y="-63.560692"
     transform="rotate(55.291205)"
     ry="2.4942758" />
  <rect
     style="fill:#000000;stroke:#d38d5f;stroke-width:0"
     id="rect2534"
     width="7.7921505"
     height="15.458523"
     x="106.72358"
     y="80.590065"
     ry="1.0879693"
     transform="matrix(0.97238223,0.23339409,0,1,0,0)" />
  <rect
     style="fill:#800000;stroke:#d38d5f;stroke-width:0"
     id="rect2783"
     width="4.4430141"
     height="21.382006"
     x="117.46219"
     y="101.91164"
     ry="0" />
  <rect
     style="fill:#800000;stroke:#d38d5f;stroke-width:0"
     id="rect2783-5"
     width="4.4430141"
     height="23.603512"
     x="139.18202"
     y="87.738861"
     ry="0" />
  <rect
     style="fill:#800000;stroke:#d38d5f;stroke-width:0"
     id="rect2783-1"
     width="4.4430141"
     height="21.382006"
     x="129.4028"
     y="94.552895"
     ry="0" />
  <rect
     style="fill:#800000;stroke:#d38d5f;stroke-width:0"
     id="rect2783-9"
     width="4.4430141"
     height="21.382006"
     x="96.357887"
     y="96.488007"
     ry="0" />
  <path
     style="fill:#666666;stroke:#d38d5f;stroke-width:0"
     id="path2999"
     d="m 61.64682,160.78157 a 3.3322606,6.3868332 0 0 1 3.33226,-6.38683 3.3322606,6.3868332 0 0 1 3.332261,6.38683 H 64.97908 Z" />
  <path
     style="fill:#666666;stroke:#d38d5f;stroke-width:0"
     id="path3026"
     d="m 131.34662,133.15158 a 0.55537677,0.13884419 0 0 1 0.27768,-0.12024 0.55537677,0.13884419 0 0 1 0.55538,0 0.55537677,0.13884419 0 0 1 0.27769,0.12024 h -0.55538 z" />
  <path
     style="fill:#666666;stroke:#d38d5f;stroke-width:0"
     id="path2999-0"
     d="m 136.90037,140.37149 a 3.3322606,6.3868332 0 0 1 3.33227,-6.38683 3.3322606,6.3868332 0 0 1 3.33226,6.38683 h -3.33226 z" />
  <rect
     style="fill:#784421;stroke:#d38d5f;stroke-width:0"
     id="rect3165"
     width="4.7207026"
     height="36.654869"
     x="46.651649"
     y="92.747925" />
  <ellipse
     style="fill:#ffffff;stroke:#ececec;stroke-width:1;stroke-miterlimit:4;stroke-dasharray:none"
     id="path3217"
     cx="38.459843"
     cy="77.613907"
     rx="7.3587422"
     ry="7.6364307" />
  <ellipse
     style="fill:#ffffff;stroke:#e6e6e6;stroke-width:1;stroke-miterlimit:4;stroke-dasharray:none"
     id="path3217-9"
     cx="55.537682"
     cy="75.253548"
     rx="7.3587422"
     ry="7.6364307" />
  <ellipse
     style="fill:#f2f2f2;stroke:#e6e6e6;stroke-width:1;stroke-miterlimit:4;stroke-dasharray:none"
     id="path3217-4"
     cx="46.651653"
     cy="72.476669"
     rx="7.3587422"
     ry="7.6364307" />
  <ellipse
     style="fill:#008000;stroke:#d38d5f;stroke-width:0"
     id="path3217-1"
     cx="61.646824"
     cy="84.972649"
     rx="7.3587422"
     ry="7.6364307" />
  <ellipse
     style="fill:#008000;stroke:#d38d5f;stroke-width:0"
     id="path3213"
     cx="49.428532"
     cy="92.747925"
     rx="12.495976"
     ry="17.077837" />
  <ellipse
     style="fill:#008000;stroke:#d38d5f;stroke-width:0"
     id="path3217-6"
     cx="58.869934"
     cy="99.690132"
     rx="7.3587422"
     ry="7.6364307" />
  <ellipse
     style="fill:#008000;stroke:#d38d5f;stroke-width:0"
     id="path3217-10-8"
     cx="41.653259"
     cy="101.07858"
     rx="7.3587422"
     ry="7.6364307" />
  <ellipse
     style="fill:#008000;stroke:#d38d5f;stroke-width:0"
     id="path3217-10"
     cx="35.544113"
     cy="89.693352"
     rx="7.3587422"
     ry="7.6364307" />
</svg>
