<?xml version="1.0" encoding="UTF-8" standalone="no"?>
<!-- Created with Inkscape (http://www.inkscape.org/) -->

<svg
   width="100%"
   height="100%"
   viewBox="0 0 210 297"
   version="1.1"
   id="svg5"
   sodipodi:docname="landTile8.svg"
   inkscape:version="1.1 (c68e22c387, 2021-05-23)"
   xmlns:inkscape="http://www.inkscape.org/namespaces/inkscape"
   xmlns:sodipodi="http://sodipodi.sourceforge.net/DTD/sodipodi-0.dtd"
   xmlns="http://www.w3.org/2000/svg"
   xmlns:svg="http://www.w3.org/2000/svg">
  <sodipodi:namedview
     id="namedview2870"
     pagecolor="#ffffff"
     bordercolor="#666666"
     borderopacity="1.0"
     inkscape:pageshadow="2"
     inkscape:pageopacity="0.0"
     inkscape:pagecheckerboard="0"
     showgrid="false"
     inkscape:zoom="2.7340067"
     inkscape:cx="105.15702"
     inkscape:cy="148.68288"
     inkscape:window-width="1920"
     inkscape:window-height="1001"
     inkscape:window-x="-9"
     inkscape:window-y="-9"
     inkscape:window-maximized="1"
     inkscape:current-layer="svg5" />
  <defs
     id="defs2" />
  <g
     id="layer1">
    <rect
       style="fill:#bb9400;stroke:#000000;stroke-width:0.832542;stroke-miterlimit:4;stroke-dasharray:none"
       id="rect1488"
       width="114.86641"
       height="106.92041"
       x="136.50136"
       y="12.134501"
       transform="matrix(0.82240508,0.56890236,-0.87458341,0.4848751,0,0)" />
    <rect
       style="fill:#bb9400;stroke:#000000;stroke-width:1.03338;stroke-miterlimit:4;stroke-dasharray:none"
       id="rect1936"
       width="107.95976"
       height="33.990139"
       x="117.38315"
       y="257.75235"
       transform="matrix(0.87408352,-0.48577567,0,1,0,0)" />
    <rect
       style="fill:#bb9400;stroke:#000000;stroke-width:0.803903;stroke-miterlimit:4;stroke-dasharray:none"
       id="rect2246"
       width="113.68499"
       height="35.761646"
       x="10.918944"
       y="130.02806"
       transform="matrix(0.82343046,0.5674172,0,1,0,0)" />
    <rect
       style="fill:#bb9400;stroke:#000000;stroke-width:0.734267;stroke-miterlimit:4;stroke-dasharray:none"
       id="rect1936-4"
       width="106.92042"
       height="17.327702"
       x="117.31606"
       y="257.61411"
       transform="matrix(0.87458342,-0.48487508,0,1,0,0)" />
    <rect
       style="fill:#bb9400;stroke:#000000;stroke-width:0.528459;stroke-miterlimit:4;stroke-dasharray:none"
       id="rect2246-4"
       width="113.81967"
       height="15.43545"
       x="7.2210975"
       y="132.15479"
       transform="matrix(0.82279149,0.56834334,0.02307547,0.99973373,0,0)" />
    <path
       style="fill:#008000;stroke:#000000;stroke-width:0;stroke-miterlimit:4;stroke-dasharray:none"
       d="M 230.16368,646.91519 C 143.66631,587.04442 64.377539,532.16145 53.966415,524.95305 l -18.929314,-13.1062 174.532229,-96.76291 174.53222,-96.7629 9.08044,6.31261 c 4.99425,3.47194 84.08519,58.12707 175.75767,121.45585 91.67248,63.32877 166.68374,115.4691 166.69171,115.8674 0.0116,0.60588 -297.06108,166.13063 -335.73485,187.06644 l -12.4649,6.7478 z"
       id="path2980"
       transform="scale(0.26458333)" />
    <path
       style="fill:#008000;stroke:#000000;stroke-width:0;stroke-miterlimit:4;stroke-dasharray:none"
       d="m 390.55452,803.43887 c -0.51547,-8.94559 -0.91706,-22.45638 -0.89243,-30.02397 l 0.0448,-13.75925 167.44598,-92.69392 c 92.09527,-50.98166 170.62157,-94.50687 174.50283,-96.72269 l 7.05688,-4.02876 -0.39102,30.76378 -0.39103,30.76378 -166.55939,92.3496 c -91.60766,50.79229 -169.55639,93.98457 -173.21939,95.98287 l -6.66,3.63327 z"
       id="path3019"
       transform="scale(0.26458333)" />
    <path
       style="fill:#008000;stroke:#000000;stroke-width:0;stroke-miterlimit:4;stroke-dasharray:none"
       d="M 211.09592,692.7571 36.208563,571.77943 V 545.0444 518.30937 l 3.982942,2.80188 c 2.190618,1.54103 80.238175,55.42618 173.439015,119.74476 93.20084,64.31859 170.1976,117.68653 171.10391,118.59544 1.74017,1.74514 3.83051,54.61783 2.15072,54.40019 -0.49603,-0.0643 -79.60118,-54.55682 -175.78923,-121.09454 z"
       id="path3058"
       transform="scale(0.26458333)" />
    <path
       style="fill:#784421;stroke:#000000;stroke-width:0;stroke-miterlimit:4;stroke-dasharray:none"
       d="M 212.18218,770.29946 C 117.38816,704.99826 39.003061,650.7618 37.993068,649.77399 c -1.406597,-1.3757 -1.745547,-10.19066 -1.448342,-37.66661 l 0.388008,-35.8706 172.352756,118.99485 c 94.79402,65.44716 173.17912,119.78643 174.18912,120.75393 1.40687,1.34768 1.7456,10.09483 1.44834,37.40123 l -0.38801,35.64213 z"
       id="path3134"
       transform="scale(0.26458333)" />
    <path
       style="fill:#c87137;stroke:#000000;stroke-width:0;stroke-miterlimit:4;stroke-dasharray:none"
       d="m 389.93656,854.17477 0.39175,-29.10735 175.61153,-97.36764 175.61153,-97.36763 v 28.6944 28.69441 l -176.00328,97.78058 -176.00327,97.78057 z"
       id="path3173"
       transform="scale(0.26458333)" />
    <path
       style="fill:#c87137;stroke:#000000;stroke-width:0;stroke-miterlimit:4;stroke-dasharray:none"
       d="M 347.6022,862.74305 C 328.88238,849.79713 268.26924,807.98454 212.90635,769.82617 157.54346,731.66781 95.463876,688.7885 74.951725,674.53884 l -37.29482,-25.90848 v -35.46947 -35.46947 l 3.982942,2.77989 c 2.190618,1.52895 59.056163,40.79293 126.367883,87.2533 67.31172,46.46037 143.40402,99.07063 169.09399,116.9117 l 46.70905,32.43831 v 34.65551 c 0,19.06052 -0.48882,34.63197 -1.08626,34.60322 -0.59744,-0.0287 -16.40248,-10.64438 -35.12231,-23.5903 z"
       id="path3249"
       transform="scale(0.26458333)" />
    <circle
       style="fill:#00ff00;stroke:#000000;stroke-width:0;stroke-miterlimit:4;stroke-dasharray:none"
       id="path3354"
       cx="55.18185"
       cy="137.95462"
       r="5.364902" />
    <ellipse
       style="fill:#00ff00;stroke:#000000;stroke-width:0;stroke-miterlimit:4;stroke-dasharray:none"
       id="path3356"
       cx="160.37224"
       cy="141.7867"
       rx="6.7061276"
       ry="6.8977313" />
    <ellipse
       style="fill:#00ff00;stroke:#000000;stroke-width:0;stroke-miterlimit:4;stroke-dasharray:none"
       id="path3358"
       cx="107.87285"
       cy="170.71884"
       rx="7.4725423"
       ry="6.3229203" />
    <ellipse
       style="fill:#ff0000;stroke:#000000;stroke-width:0;stroke-miterlimit:4;stroke-dasharray:none"
       id="path3382"
       cx="87.754463"
       cy="170.71884"
       rx="2.2992437"
       ry="2.10764" />
    <ellipse
       style="fill:#ff0000;stroke:#000000;stroke-width:0;stroke-miterlimit:4;stroke-dasharray:none"
       id="path3382-1"
       cx="93.502579"
       cy="158.64781"
       rx="2.2992437"
       ry="2.10764" />
    <ellipse
       style="fill:#ff0000;stroke:#000000;stroke-width:0;stroke-miterlimit:4;stroke-dasharray:none"
       id="path3382-8"
       cx="107.29803"
       cy="157.88141"
       rx="2.2992437"
       ry="2.10764" />
    <rect
       style="fill:#009bff;fill-opacity:1;stroke:#000000;stroke-width:0;stroke-miterlimit:4;stroke-dasharray:none"
       id="rect3521"
       width="104.18499"
       height="14.975807"
       x="124.21191"
       y="3.7682486"
       transform="matrix(0.65877971,0.75233589,-0.83046642,0.55706869,0,0)" />
  </g>
  <rect
     style="fill:#666666;stroke:#37c8ab;stroke-width:0"
     id="rect3021"
     width="14.996305"
     height="14.996305"
     x="117.77586"
     y="111.19212"
     ry="0" />
  <ellipse
     style="fill:#000000;stroke:#37c8ab;stroke-width:0"
     id="path2995"
     cx="125.09113"
     cy="111.19212"
     rx="6.9495072"
     ry="2.1945813" />
  <rect
     style="fill:#666666;stroke:#37c8ab;stroke-width:0"
     id="rect3021-1"
     width="14.996305"
     height="14.996305"
     x="55.047421"
     y="149.78017"
     ry="0" />
  <rect
     style="fill:#666666;stroke:#37c8ab;stroke-width:0"
     id="rect3021-7"
     width="14.996305"
     height="14.996305"
     x="131.30911"
     y="135.69829"
     ry="0" />
  <rect
     style="fill:#666666;stroke:#37c8ab;stroke-width:0"
     id="rect3021-2"
     width="14.996305"
     height="14.996305"
     x="77.724762"
     y="130.02895"
     ry="0" />
  <rect
     style="fill:#666666;stroke:#37c8ab;stroke-width:0"
     id="rect3021-0"
     width="14.996305"
     height="14.996305"
     x="49.560955"
     y="111.74076"
     ry="0" />
  <rect
     style="fill:#666666;stroke:#37c8ab;stroke-width:0"
     id="rect3021-24"
     width="14.996305"
     height="14.996305"
     x="94.915642"
     y="90.160713"
     ry="0" />
  <ellipse
     style="fill:#000000;stroke:#37c8ab;stroke-width:0"
     id="path2995-2"
     cx="102.04803"
     cy="90.34359"
     rx="6.9495072"
     ry="2.1945813" />
  <ellipse
     style="fill:#000000;stroke:#37c8ab;stroke-width:0"
     id="path2995-3"
     cx="57.059109"
     cy="111.55788"
     rx="6.9495072"
     ry="2.1945813" />
  <ellipse
     style="fill:#000000;stroke:#37c8ab;stroke-width:0"
     id="path2995-8"
     cx="85.95443"
     cy="130.21182"
     rx="6.9495072"
     ry="2.1945813" />
  <ellipse
     style="fill:#000000;stroke:#37c8ab;stroke-width:0"
     id="path2995-37"
     cx="61.814045"
     cy="150.32881"
     rx="6.9495072"
     ry="2.1945813" />
  <ellipse
     style="fill:#000000;stroke:#37c8ab;stroke-width:0"
     id="path2995-7"
     cx="138.62439"
     cy="134.96675"
     rx="6.9495072"
     ry="2.1945813" />
</svg>
