<?xml version="1.0" encoding="UTF-8" standalone="no"?>
<!-- Created with Inkscape (http://www.inkscape.org/) -->

<svg
   width="100%"
   height="100%"
   viewBox="0 0 210 297"
   version="1.1"
   id="svg5"
   sodipodi:docname="landTile4.svg"
   inkscape:version="1.1 (c68e22c387, 2021-05-23)"
   xmlns:inkscape="http://www.inkscape.org/namespaces/inkscape"
   xmlns:sodipodi="http://sodipodi.sourceforge.net/DTD/sodipodi-0.dtd"
   xmlns="http://www.w3.org/2000/svg"
   xmlns:svg="http://www.w3.org/2000/svg">
  <sodipodi:namedview
     id="namedview868"
     pagecolor="#ffffff"
     bordercolor="#666666"
     borderopacity="1.0"
     inkscape:pageshadow="2"
     inkscape:pageopacity="0.0"
     inkscape:pagecheckerboard="0"
     showgrid="false"
     inkscape:zoom="3.0331189"
     inkscape:cx="105.00742"
     inkscape:cy="147.5379"
     inkscape:window-width="1920"
     inkscape:window-height="1001"
     inkscape:window-x="-9"
     inkscape:window-y="-9"
     inkscape:window-maximized="1"
     inkscape:current-layer="svg5" />
  <defs
     id="defs2" />
  <g
     id="layer1">
    <rect
       style="fill:#bb9400;stroke:#000000;stroke-width:0.832542;stroke-miterlimit:4;stroke-dasharray:none"
       id="rect1488"
       width="114.86641"
       height="106.92041"
       x="136.50136"
       y="12.134501"
       transform="matrix(0.82240508,0.56890236,-0.87458341,0.4848751,0,0)" />
    <rect
       style="fill:#bb9400;stroke:#000000;stroke-width:1.03338;stroke-miterlimit:4;stroke-dasharray:none"
       id="rect1936"
       width="107.95976"
       height="33.990139"
       x="117.38315"
       y="257.75235"
       transform="matrix(0.87408352,-0.48577567,0,1,0,0)" />
    <rect
       style="fill:#bb9400;stroke:#000000;stroke-width:0.803903;stroke-miterlimit:4;stroke-dasharray:none"
       id="rect2246"
       width="113.68499"
       height="35.761646"
       x="10.918944"
       y="130.02806"
       transform="matrix(0.82343046,0.5674172,0,1,0,0)" />
    <rect
       style="fill:#bb9400;stroke:#000000;stroke-width:0.734267;stroke-miterlimit:4;stroke-dasharray:none"
       id="rect1936-4"
       width="106.92042"
       height="17.327702"
       x="117.31606"
       y="257.61411"
       transform="matrix(0.87458342,-0.48487508,0,1,0,0)" />
    <rect
       style="fill:#bb9400;stroke:#000000;stroke-width:0.528459;stroke-miterlimit:4;stroke-dasharray:none"
       id="rect2246-4"
       width="113.81967"
       height="15.43545"
       x="7.2210975"
       y="132.15479"
       transform="matrix(0.82279149,0.56834334,0.02307547,0.99973373,0,0)" />
    <path
       style="fill:#008000;stroke:#000000;stroke-width:0;stroke-miterlimit:4;stroke-dasharray:none"
       d="M 230.16368,646.91519 C 143.66631,587.04442 64.377539,532.16145 53.966415,524.95305 l -18.929314,-13.1062 174.532229,-96.76291 174.53222,-96.7629 9.08044,6.31261 c 4.99425,3.47194 84.08519,58.12707 175.75767,121.45585 91.67248,63.32877 166.68374,115.4691 166.69171,115.8674 0.0116,0.60588 -297.06108,166.13063 -335.73485,187.06644 l -12.4649,6.7478 z"
       id="path2980"
       transform="scale(0.26458333)" />
    <path
       style="fill:#008000;stroke:#000000;stroke-width:0;stroke-miterlimit:4;stroke-dasharray:none"
       d="m 390.55452,803.43887 c -0.51547,-8.94559 -0.91706,-22.45638 -0.89243,-30.02397 l 0.0448,-13.75925 167.44598,-92.69392 c 92.09527,-50.98166 170.62157,-94.50687 174.50283,-96.72269 l 7.05688,-4.02876 -0.39102,30.76378 -0.39103,30.76378 -166.55939,92.3496 c -91.60766,50.79229 -169.55639,93.98457 -173.21939,95.98287 l -6.66,3.63327 z"
       id="path3019"
       transform="scale(0.26458333)" />
    <path
       style="fill:#008000;stroke:#000000;stroke-width:0;stroke-miterlimit:4;stroke-dasharray:none"
       d="M 211.09592,692.7571 36.208563,571.77943 V 545.0444 518.30937 l 3.982942,2.80188 c 2.190618,1.54103 80.238175,55.42618 173.439015,119.74476 93.20084,64.31859 170.1976,117.68653 171.10391,118.59544 1.74017,1.74514 3.83051,54.61783 2.15072,54.40019 -0.49603,-0.0643 -79.60118,-54.55682 -175.78923,-121.09454 z"
       id="path3058"
       transform="scale(0.26458333)" />
    <path
       style="fill:#784421;stroke:#000000;stroke-width:0;stroke-miterlimit:4;stroke-dasharray:none"
       d="M 212.18218,770.29946 C 117.38816,704.99826 39.003061,650.7618 37.993068,649.77399 c -1.406597,-1.3757 -1.745547,-10.19066 -1.448342,-37.66661 l 0.388008,-35.8706 172.352756,118.99485 c 94.79402,65.44716 173.17912,119.78643 174.18912,120.75393 1.40687,1.34768 1.7456,10.09483 1.44834,37.40123 l -0.38801,35.64213 z"
       id="path3134"
       transform="scale(0.26458333)" />
    <path
       style="fill:#c87137;stroke:#000000;stroke-width:0;stroke-miterlimit:4;stroke-dasharray:none"
       d="m 389.93656,854.17477 0.39175,-29.10735 175.61153,-97.36764 175.61153,-97.36763 v 28.6944 28.69441 l -176.00328,97.78058 -176.00327,97.78057 z"
       id="path3173"
       transform="scale(0.26458333)" />
    <path
       style="fill:#c87137;stroke:#000000;stroke-width:0;stroke-miterlimit:4;stroke-dasharray:none"
       d="M 347.6022,862.74305 C 328.88238,849.79713 268.26924,807.98454 212.90635,769.82617 157.54346,731.66781 95.463876,688.7885 74.951725,674.53884 l -37.29482,-25.90848 v -35.46947 -35.46947 l 3.982942,2.77989 c 2.190618,1.52895 59.056163,40.79293 126.367883,87.2533 67.31172,46.46037 143.40402,99.07063 169.09399,116.9117 l 46.70905,32.43831 v 34.65551 c 0,19.06052 -0.48882,34.63197 -1.08626,34.60322 -0.59744,-0.0287 -16.40248,-10.64438 -35.12231,-23.5903 z"
       id="path3249"
       transform="scale(0.26458333)" />
    <circle
       style="fill:#00ff00;stroke:#000000;stroke-width:0;stroke-miterlimit:4;stroke-dasharray:none"
       id="path3354"
       cx="55.18185"
       cy="137.95462"
       r="5.364902" />
    <ellipse
       style="fill:#00ff00;stroke:#000000;stroke-width:0;stroke-miterlimit:4;stroke-dasharray:none"
       id="path3356"
       cx="160.37224"
       cy="141.7867"
       rx="6.7061276"
       ry="6.8977313" />
    <ellipse
       style="fill:#00ff00;stroke:#000000;stroke-width:0;stroke-miterlimit:4;stroke-dasharray:none"
       id="path3358"
       cx="107.87285"
       cy="170.71884"
       rx="7.4725423"
       ry="6.3229203" />
    <ellipse
       style="fill:#ff0000;stroke:#000000;stroke-width:0;stroke-miterlimit:4;stroke-dasharray:none"
       id="path3382"
       cx="87.754463"
       cy="170.71884"
       rx="2.2992437"
       ry="2.10764" />
    <ellipse
       style="fill:#ff0000;stroke:#000000;stroke-width:0;stroke-miterlimit:4;stroke-dasharray:none"
       id="path3382-1"
       cx="93.502579"
       cy="158.64781"
       rx="2.2992437"
       ry="2.10764" />
    <ellipse
       style="fill:#ff0000;stroke:#000000;stroke-width:0;stroke-miterlimit:4;stroke-dasharray:none"
       id="path3382-8"
       cx="107.29803"
       cy="157.88141"
       rx="2.2992437"
       ry="2.10764" />
    <rect
       style="fill:#009bff;fill-opacity:1;stroke:#000000;stroke-width:0;stroke-miterlimit:4;stroke-dasharray:none"
       id="rect3521"
       width="104.18499"
       height="14.975807"
       x="124.21191"
       y="3.7682486"
       transform="matrix(0.65877971,0.75233589,-0.83046642,0.55706869,0,0)" />
  </g>
  <path
     style="fill:#ff0066;fill-opacity:1;stroke:#37c8ab;stroke-width:0;stroke-miterlimit:4;stroke-dasharray:none"
     d="m 145.05441,175.82767 c 0.4474,-0.32753 1.18185,-0.91014 1.63211,-1.29469 l 0.81866,-0.6992 -33.57479,-38.33621 C 95.464258,114.41265 80.338682,96.96313 80.318002,96.720864 80.296415,96.467981 84.82085,93.7561 90.941369,90.353372 l 10.660971,-5.927009 18.68176,12.907411 c 22.90804,15.827386 67.87419,46.976136 71.32123,49.405336 1.38932,0.97908 2.46737,1.87506 2.39567,1.99107 -0.17032,0.27559 -1.99145,1.30516 -27.31127,15.44032 -20.03854,11.18681 -23.65322,13.13441 -21.63532,11.65717 z m 19.17592,-28.29974 c 0.76456,-0.53851 1.74818,-1.64674 2.18584,-2.46273 0.68134,-1.27032 0.77396,-1.80778 0.64421,-3.73827 -0.18489,-2.75084 -1.28603,-4.54043 -3.53234,-5.7408 -2.11186,-1.12853 -5.01746,-0.95033 -6.97389,0.42769 -2.09385,1.47481 -2.99531,3.42091 -2.84987,6.15235 0.0966,1.81425 0.29599,2.46483 1.11057,3.62384 1.52796,2.17401 3.12757,2.95054 5.81416,2.82245 1.82002,-0.0868 2.45716,-0.27865 3.60132,-1.08453 z"
     id="path3163" />
  <path
     style="fill:#ff0066;fill-opacity:1;stroke:#37c8ab;stroke-width:0;stroke-miterlimit:4;stroke-dasharray:none"
     d="M 56.135158,167.70628 C 30.706067,150.08574 9.9353674,135.5615 9.9780504,135.43019 10.020733,135.29888 22.655311,128.20594 38.05489,119.66809 l 27.999233,-15.52336 1.07074,1.09073 c 0.588908,0.59991 15.988486,18.13988 34.221287,38.97771 l 33.15054,37.88698 -5.01867,2.78852 c -12.86737,7.14947 -26.94929,14.90324 -27.02471,14.88032 -0.0459,-0.0139 -20.889056,-14.44217 -46.318152,-32.06271 z m 55.295362,8.65445 c 1.85554,-0.84167 2.55078,-1.46885 3.33795,-3.01117 1.99596,-3.91074 -0.7663,-8.25896 -5.71836,-9.00156 -5.3782,-0.80651 -10.146809,3.86881 -8.47333,8.30758 0.49758,1.31979 2.22955,3.04821 3.77126,3.76353 1.82829,0.8483 5.14386,0.82096 7.08248,-0.0584 z m -21.785742,-4.08746 c 0.742388,-0.74239 0.589578,-2.48817 -0.279379,-3.19181 -1.611345,-1.30479 -3.974747,-0.30828 -3.974747,1.67591 0,1.97167 2.800454,2.96957 4.254126,1.5159 z m 5.574516,-12.05501 c 0.912539,-0.85016 0.934151,-2.33011 0.04577,-3.13408 -0.978811,-0.88581 -2.876973,-0.80772 -3.652709,0.15027 -0.796724,0.98391 -0.779376,1.71211 0.06641,2.78735 0.852074,1.08323 2.491076,1.17418 3.540534,0.19646 z m 13.991726,-1.01375 c 0.79495,-0.95748 0.72245,-1.82513 -0.23229,-2.77986 -1.00621,-1.00622 -2.36088,-1.04332 -3.37309,-0.0924 -1.05465,0.99079 -0.99668,2.34846 0.13839,3.24131 1.08227,0.85131 2.58673,0.69117 3.46699,-0.36905 z M 58.450442,142.33869 c 1.590943,-1.21348 2.325573,-2.91144 2.131865,-4.92741 -0.278034,-2.89356 -2.455677,-4.87444 -5.358623,-4.87444 -4.964856,0 -7.366345,6.0733 -3.740209,9.45889 1.161191,1.08416 2.239015,1.42628 4.128542,1.31048 1.221993,-0.0749 2.028602,-0.34984 2.838425,-0.96752 z"
     id="path3202" />
  <path
     style="fill:#ff0066;fill-opacity:1;stroke:#37c8ab;stroke-width:0;stroke-miterlimit:4;stroke-dasharray:none"
     d="m 103.73477,216.11547 c -0.0868,-0.22611 -0.26455,-3.67267 -0.39507,-7.65902 l -0.23731,-7.24791 12.98633,-7.19215 c 7.14249,-3.95568 27.79764,-15.40104 45.90035,-25.43412 18.1027,-10.03309 32.976,-18.24197 33.05178,-18.24197 0.0758,0 0.13334,3.5236 0.12792,7.83022 l -0.01,7.83023 -31.86582,17.63861 c -17.5262,9.70123 -38.06114,21.06955 -45.63318,25.26292 -9.03584,5.004 -13.82158,7.48301 -13.92512,7.21319 z"
     id="path3241" />
  <path
     style="fill:#d40055;fill-opacity:1;stroke:#37c8ab;stroke-width:0;stroke-miterlimit:4;stroke-dasharray:none"
     d="M 97.91901,212.0793 C 90.597236,207.06476 60.48693,186.28194 34.865102,168.55804 L 9.8908091,151.28207 v -6.73506 c 0,-3.70429 0.078395,-6.73507 0.1742109,-6.73507 0.169668,0 58.452485,40.20002 80.652815,55.62951 l 11.096825,7.71243 0.21804,3.35898 c 0.11992,1.84743 0.17066,4.94072 0.11275,6.87396 l -0.10527,3.51499 z"
     id="path3280" />
  <path
     style="fill:#d40055;fill-opacity:1;stroke:#37c8ab;stroke-width:0;stroke-miterlimit:4;stroke-dasharray:none"
     d="m 103.72461,212.88796 c -0.10376,-1.67088 -0.22849,-4.96159 -0.27716,-7.31269 l -0.0885,-4.27474 33.79359,-18.72844 c 18.58648,-10.30065 38.54119,-21.34232 44.3438,-24.53705 5.8026,-3.19472 11.18073,-6.17289 11.95139,-6.61815 l 1.4012,-0.80955 -0.006,7.6967 -0.006,7.69671 -42.44173,23.45987 c -23.34295,12.90293 -43.80063,24.1361 -45.46151,24.96259 l -3.01977,1.50271 z"
     id="path3357" />
  <path
     style="fill:#d4aa00;fill-opacity:1;stroke:#37c8ab;stroke-width:0;stroke-miterlimit:4;stroke-dasharray:none"
     d="M 95.611155,230.55551 C 89.51533,226.37938 40.283713,192.40425 22.666753,180.216 l -12.44562,-8.61046 -3.15e-4,-9.16129 -3.15e-4,-9.16128 2.060585,1.39087 c 1.133322,0.76497 4.879466,3.34085 8.324764,5.72417 3.445299,2.38331 11.605216,8.0214 18.13315,12.52908 16.804722,11.60403 35.524163,24.54717 50.195856,34.7068 l 12.610782,8.73252 -0.001,4.1599 c -0.002,5.43709 -0.37765,13.55972 -0.62704,13.54316 -0.10768,-0.007 -2.495487,-1.58844 -5.306125,-3.51396 z"
     id="path3396" />
  <path
     style="fill:#ffcc00;fill-opacity:1;stroke:#37c8ab;stroke-width:0;stroke-miterlimit:4;stroke-dasharray:none"
     d="m 103.19411,229.37259 c 0,-2.24909 0.0963,-5.66338 0.21403,-7.5873 l 0.21403,-3.49805 46.11432,-25.56628 c 25.36288,-14.06146 46.18563,-25.56629 46.27277,-25.56629 0.0871,0 0.15845,3.3014 0.15845,7.33644 v 7.33644 l -43.90482,24.39657 c -24.14765,13.41812 -45.06671,25.03584 -46.4868,25.81716 l -2.58198,1.42058 z"
     id="path3472" />
</svg>
