<?xml version="1.0" encoding="UTF-8" standalone="no"?>
<!-- Created with Inkscape (http://www.inkscape.org/) -->

<svg
   width="100%"
   height="100%"
   viewBox="0 0 210 297"
   version="1.1"
   id="svg5"
   xmlns="http://www.w3.org/2000/svg"
   xmlns:svg="http://www.w3.org/2000/svg">
  <defs
     id="defs2" />
  <g
     id="layer1">
    <rect
       style="fill:#bb9400;stroke:#000000;stroke-width:0.832542;stroke-miterlimit:4;stroke-dasharray:none"
       id="rect1488"
       width="114.86641"
       height="106.92041"
       x="136.50136"
       y="12.134501"
       transform="matrix(0.82240508,0.56890236,-0.87458341,0.4848751,0,0)" />
    <rect
       style="fill:#bb9400;stroke:#000000;stroke-width:1.03338;stroke-miterlimit:4;stroke-dasharray:none"
       id="rect1936"
       width="107.95976"
       height="33.990139"
       x="117.38315"
       y="257.75235"
       transform="matrix(0.87408352,-0.48577567,0,1,0,0)" />
    <rect
       style="fill:#bb9400;stroke:#000000;stroke-width:0.803903;stroke-miterlimit:4;stroke-dasharray:none"
       id="rect2246"
       width="113.68499"
       height="35.761646"
       x="10.918944"
       y="130.02806"
       transform="matrix(0.82343046,0.5674172,0,1,0,0)" />
    <rect
       style="fill:#bb9400;stroke:#000000;stroke-width:0.734267;stroke-miterlimit:4;stroke-dasharray:none"
       id="rect1936-4"
       width="106.92042"
       height="17.327702"
       x="117.31606"
       y="257.61411"
       transform="matrix(0.87458342,-0.48487508,0,1,0,0)" />
    <rect
       style="fill:#bb9400;stroke:#000000;stroke-width:0.528459;stroke-miterlimit:4;stroke-dasharray:none"
       id="rect2246-4"
       width="113.81967"
       height="15.43545"
       x="7.2210975"
       y="132.15479"
       transform="matrix(0.82279149,0.56834334,0.02307547,0.99973373,0,0)" />
    <path
       style="fill:#008000;stroke:#000000;stroke-width:0;stroke-miterlimit:4;stroke-dasharray:none"
       d="M 230.16368,646.91519 C 143.66631,587.04442 64.377539,532.16145 53.966415,524.95305 l -18.929314,-13.1062 174.532229,-96.76291 174.53222,-96.7629 9.08044,6.31261 c 4.99425,3.47194 84.08519,58.12707 175.75767,121.45585 91.67248,63.32877 166.68374,115.4691 166.69171,115.8674 0.0116,0.60588 -297.06108,166.13063 -335.73485,187.06644 l -12.4649,6.7478 z"
       id="path2980"
       transform="scale(0.26458333)" />
    <path
       style="fill:#008000;stroke:#000000;stroke-width:0;stroke-miterlimit:4;stroke-dasharray:none"
       d="m 390.55452,803.43887 c -0.51547,-8.94559 -0.91706,-22.45638 -0.89243,-30.02397 l 0.0448,-13.75925 167.44598,-92.69392 c 92.09527,-50.98166 170.62157,-94.50687 174.50283,-96.72269 l 7.05688,-4.02876 -0.39102,30.76378 -0.39103,30.76378 -166.55939,92.3496 c -91.60766,50.79229 -169.55639,93.98457 -173.21939,95.98287 l -6.66,3.63327 z"
       id="path3019"
       transform="scale(0.26458333)" />
    <path
       style="fill:#008000;stroke:#000000;stroke-width:0;stroke-miterlimit:4;stroke-dasharray:none"
       d="M 211.09592,692.7571 36.208563,571.77943 V 545.0444 518.30937 l 3.982942,2.80188 c 2.190618,1.54103 80.238175,55.42618 173.439015,119.74476 93.20084,64.31859 170.1976,117.68653 171.10391,118.59544 1.74017,1.74514 3.83051,54.61783 2.15072,54.40019 -0.49603,-0.0643 -79.60118,-54.55682 -175.78923,-121.09454 z"
       id="path3058"
       transform="scale(0.26458333)" />
    <path
       style="fill:#784421;stroke:#000000;stroke-width:0;stroke-miterlimit:4;stroke-dasharray:none"
       d="M 212.18218,770.29946 C 117.38816,704.99826 39.003061,650.7618 37.993068,649.77399 c -1.406597,-1.3757 -1.745547,-10.19066 -1.448342,-37.66661 l 0.388008,-35.8706 172.352756,118.99485 c 94.79402,65.44716 173.17912,119.78643 174.18912,120.75393 1.40687,1.34768 1.7456,10.09483 1.44834,37.40123 l -0.38801,35.64213 z"
       id="path3134"
       transform="scale(0.26458333)" />
    <path
       style="fill:#c87137;stroke:#000000;stroke-width:0;stroke-miterlimit:4;stroke-dasharray:none"
       d="m 389.93656,854.17477 0.39175,-29.10735 175.61153,-97.36764 175.61153,-97.36763 v 28.6944 28.69441 l -176.00328,97.78058 -176.00327,97.78057 z"
       id="path3173"
       transform="scale(0.26458333)" />
    <path
       style="fill:#c87137;stroke:#000000;stroke-width:0;stroke-miterlimit:4;stroke-dasharray:none"
       d="M 347.6022,862.74305 C 328.88238,849.79713 268.26924,807.98454 212.90635,769.82617 157.54346,731.66781 95.463876,688.7885 74.951725,674.53884 l -37.29482,-25.90848 v -35.46947 -35.46947 l 3.982942,2.77989 c 2.190618,1.52895 59.056163,40.79293 126.367883,87.2533 67.31172,46.46037 143.40402,99.07063 169.09399,116.9117 l 46.70905,32.43831 v 34.65551 c 0,19.06052 -0.48882,34.63197 -1.08626,34.60322 -0.59744,-0.0287 -16.40248,-10.64438 -35.12231,-23.5903 z"
       id="path3249"
       transform="scale(0.26458333)" />
    <circle
       style="fill:#00ff00;stroke:#000000;stroke-width:0;stroke-miterlimit:4;stroke-dasharray:none"
       id="path3354"
       cx="55.18185"
       cy="137.95462"
       r="5.364902" />
    <ellipse
       style="fill:#00ff00;stroke:#000000;stroke-width:0;stroke-miterlimit:4;stroke-dasharray:none"
       id="path3356"
       cx="160.37224"
       cy="141.7867"
       rx="6.7061276"
       ry="6.8977313" />
    <ellipse
       style="fill:#00ff00;stroke:#000000;stroke-width:0;stroke-miterlimit:4;stroke-dasharray:none"
       id="path3358"
       cx="107.87285"
       cy="170.71884"
       rx="7.4725423"
       ry="6.3229203" />
    <ellipse
       style="fill:#ff0000;stroke:#000000;stroke-width:0;stroke-miterlimit:4;stroke-dasharray:none"
       id="path3382"
       cx="87.754463"
       cy="170.71884"
       rx="2.2992437"
       ry="2.10764" />
    <ellipse
       style="fill:#ff0000;stroke:#000000;stroke-width:0;stroke-miterlimit:4;stroke-dasharray:none"
       id="path3382-1"
       cx="93.502579"
       cy="158.64781"
       rx="2.2992437"
       ry="2.10764" />
    <ellipse
       style="fill:#ff0000;stroke:#000000;stroke-width:0;stroke-miterlimit:4;stroke-dasharray:none"
       id="path3382-8"
       cx="107.29803"
       cy="157.88141"
       rx="2.2992437"
       ry="2.10764" />
    <rect
       style="fill:#009bff;fill-opacity:1;stroke:#000000;stroke-width:0;stroke-miterlimit:4;stroke-dasharray:none"
       id="rect3521"
       width="104.18499"
       height="14.975807"
       x="124.21191"
       y="3.7682486"
       transform="matrix(0.65877971,0.75233589,-0.83046642,0.55706869,0,0)" />
  </g>
  <path
     style="fill:#ffcc00;stroke:#784421;stroke-width:0"
     d="m 56.320413,167.75941 c -25.247048,-17.47716 -45.983696,-31.94734 -46.08144,-32.15596 -0.154235,-0.32919 55.106159,-31.28983 55.852206,-31.29221 0.292987,-9.3e-4 68.180121,77.42554 68.177571,77.75773 -0.002,0.25477 -30.55963,17.10156 -31.39103,17.30621 -0.41254,0.10155 -17.583219,-11.55859 -46.557307,-31.61577 z m 55.007177,8.6594 c 4.47077,-2.0699 5.44759,-6.62944 2.13083,-9.94619 -4.23134,-4.23134 -12.28286,-2.03018 -13.19782,3.60808 -0.26543,1.63565 1.00646,4.45891 2.47023,5.48326 2.39156,1.67362 6.04387,2.0368 8.59676,0.85485 z M 89.517241,172.2069 c 0.417242,-0.41724 0.758621,-1.1 0.758621,-1.51724 0,-1.01953 -1.314439,-2.27587 -2.381117,-2.27587 -1.324468,0 -2.549917,1.04415 -2.549917,2.17268 0,2.16598 2.612321,3.18052 4.172413,1.62043 z m 5.754616,-12.00707 c 0.910349,-0.82385 0.881726,-2.21866 -0.06496,-3.16535 -2.12195,-2.12195 -5.554064,0.87908 -3.544659,3.09945 0.782187,0.8643 2.688923,0.89912 3.609619,0.0659 z m 13.752773,-0.72692 c 1.37323,-1.37323 0.21022,-3.95567 -1.78144,-3.95567 -0.84291,0 -2.55353,1.64011 -2.55353,2.44828 0,1.70116 3.07272,2.76964 4.33497,1.50739 z M 57.943122,142.62274 c 2.547445,-1.5532 3.419145,-4.55997 2.082152,-7.18198 -1.852108,-3.63221 -6.898271,-4.02157 -9.318517,-0.71902 -1.107344,1.51103 -1.244711,4.37959 -0.283064,5.91104 1.045599,1.66514 2.919119,2.74369 4.765962,2.74369 0.846344,0 2.063877,-0.33329 2.753467,-0.75373 z"
     id="path1041" />
  <path
     style="fill:#ffcc00;stroke:#784421;stroke-width:0"
     d="m 146.53392,174.807 1.06841,-0.90008 -33.82392,-38.62725 C 95.175247,114.03468 80.100498,96.52113 80.278964,96.360671 81.161119,95.567519 101.49042,84.587773 101.83052,84.720794 c 0.35533,0.138983 50.10555,34.487166 80.30364,55.442646 6.60741,4.58511 11.89878,8.45368 11.75862,8.59682 -0.51159,0.52246 -46.79877,26.41257 -47.82054,26.74777 -0.3337,0.10948 -0.12594,-0.20599 0.46168,-0.70103 z m 16.69425,-26.63474 c 3.66471,-1.53121 5.15685,-6.9358 2.84598,-10.30829 -3.90415,-5.69773 -12.45346,-3.04562 -12.45346,3.86323 0,5.12252 4.90216,8.41108 9.60748,6.44506 z"
     id="path1080" />
  <path
     style="fill:#ffcc00;stroke:#784421;stroke-width:0"
     d="m 103.36122,208.97676 c -0.153,-4.18001 -0.21304,-7.66517 -0.13341,-7.7448 0.11646,-0.11646 32.02578,-17.81638 86.23771,-47.83558 4.59612,-2.54505 5.71619,-3.02957 5.82772,-2.52097 0.0759,0.34628 0.0151,3.90886 -0.13518,7.91684 l -0.27323,7.28724 -45.38207,25.12505 c -24.96014,13.81878 -45.49036,25.18067 -45.62271,25.24865 -0.13236,0.068 -0.36583,-3.29641 -0.51883,-7.47643 z"
     id="path1119" />
  <path
     style="fill:#ffcc27;stroke:#784421;stroke-width:0;fill-opacity:1"
     d="M 97.482759,211.77197 C 91.266446,207.48607 37.32697,170.22877 21.905172,159.5687 L 9.862069,151.24411 v -6.79962 c 0,-4.91825 0.1174302,-6.72703 0.424417,-6.5373 0.233429,0.14426 5.90886,4.0502 12.612069,8.67986 6.703208,4.62965 23.026445,15.90276 36.273859,25.05134 39.845463,27.51704 42.381696,29.31778 42.606186,30.25072 0.2518,1.0464 0.79868,13.18535 0.59315,13.16586 -0.0812,-0.008 -2.28123,-1.48505 -4.888991,-3.283 z"
     id="path1158" />
  <path
     style="fill:#ffd42a;fill-opacity:1;stroke:#784421;stroke-width:0"
     d="m 147.45678,173.81358 c -0.0993,-0.36212 -8.86645,-10.56579 -19.48249,-22.6748 -18.55306,-21.16227 -37.501611,-42.95174 -44.097293,-50.70873 -1.725959,-2.029847 -3.035418,-3.856789 -2.909908,-4.059869 0.633439,-1.024926 20.539311,-11.539266 21.150571,-11.171793 0.87546,0.526306 28.78898,19.764192 56.05475,38.632712 26.93281,18.6381 35.26074,24.5096 35.25849,24.85856 -0.002,0.23952 -22.52184,12.93177 -43.46565,24.49689 -2.05798,1.13641 -2.3488,1.2091 -2.50847,0.62703 z m 16.34431,-25.78359 c 2.91162,-1.37197 4.43395,-6.509 2.83148,-9.55475 -1.79619,-3.41394 -5.90525,-4.75731 -9.39063,-3.07006 -2.3748,1.14962 -3.62125,3.29087 -3.62125,6.22084 0,5.73879 4.96452,8.86171 10.1804,6.40397 z"
     id="path1641" />
  <path
     style="fill:#ffd42a;fill-opacity:1;stroke:#784421;stroke-width:0"
     d="m 147.2941,173.39872 c -0.59236,-0.94851 -3.99021,-4.88046 -29.71122,-34.38148 C 79.888271,95.782987 80.822626,96.897289 81.623943,96.133004 82.463994,95.331775 88.626159,91.91653 95.429644,88.481496 l 6.481366,-3.272399 7.93243,5.452854 c 31.82299,21.875549 69.40987,47.915389 77.64149,53.789319 4.49616,3.20838 5.50963,4.09273 5.12069,4.46827 -0.74545,0.71974 -42.67589,24.35254 -44.34138,24.99165 -0.28843,0.11069 -0.725,-0.11993 -0.97014,-0.51247 z m 15.54998,-24.8793 c 2.84278,-1.01387 4.40902,-3.47847 4.42345,-6.96067 0.009,-2.24806 -0.54897,-3.57347 -2.13884,-5.07772 -2.94422,-2.78567 -8.11681,-2.33174 -10.43296,0.91555 -0.75212,1.05451 -0.88539,1.70252 -0.88539,4.30536 0,2.79264 0.0969,3.19103 1.0939,4.49818 1.9155,2.51135 4.93128,3.39228 7.93984,2.3193 z"
     id="path1717" />
  <path
     style="fill:#d4aa00;fill-opacity:1;stroke:#784421;stroke-width:0"
     d="m 90.617788,206.751 c -6.342369,-4.37262 -27.06434,-18.68362 -46.048822,-31.80223 l -34.517242,-23.85203 0.0965,-6.19947 c 0.05307,-3.4097 0.172881,-6.27585 0.266238,-6.3692 0.177374,-0.17738 6.644567,4.25719 55.395884,37.9851 28.316386,19.59028 35.122544,24.41812 35.667794,25.30036 0.20689,0.33475 0.8981,12.48267 0.72758,12.78707 -0.031,0.0553 -5.245563,-3.47699 -11.587931,-7.8496 z"
     id="path1832" />
  <path
     style="fill:#d4aa00;fill-opacity:1;stroke:#784421;stroke-width:0"
     d="m 103.7996,213.65379 c -0.13336,-1.41217 -0.23862,-4.78655 -0.23389,-7.49862 l 0.009,-4.93103 5.58354,-3.07682 c 3.07095,-1.69224 22.82319,-12.6352 43.89388,-24.31768 37.31042,-20.68647 41.28292,-22.86412 41.70903,-22.86412 0.28027,0 0.25206,11.99114 -0.0322,13.71035 l -0.22868,1.38276 -44.43094,24.57607 c -24.43703,13.51684 -44.79002,24.80346 -45.22888,25.08137 -0.77557,0.49115 -0.80472,0.43337 -1.04041,-2.06228 z"
     id="path1871" />
  <path
     style="fill:#784421;fill-opacity:1;stroke:#784421;stroke-width:0"
     d="m 103.32001,225.84966 c 0.14735,-4.14125 0.30244,-7.55197 0.34464,-7.57939 0.85498,-0.55553 92.07405,-50.99441 92.22375,-50.99441 0.11827,0 0.21191,3.28578 0.20808,7.30173 l -0.007,7.30172 -46.10688,25.60345 c -25.35878,14.0819 -46.2922,25.66937 -46.51871,25.74994 -0.29308,0.10424 -0.33458,-2.02466 -0.14392,-7.38304 z"
     id="path1910" />
  <path
     style="fill:#784421;fill-opacity:1;stroke:#784421;stroke-width:0"
     d="m 97.862069,232.05405 c -2.316786,-1.57933 -49.48936,-34.11188 -80.554585,-55.55444 l -7.043426,-4.86168 -0.01134,-9.18399 -0.01134,-9.184 4.267242,2.95203 c 2.346982,1.62362 16.386207,11.32269 31.198276,21.55349 14.812069,10.2308 33.331896,23.03666 41.155172,28.45747 l 14.224142,9.85602 0.10169,8.97276 c 0.0559,4.93503 -0.0294,8.96351 -0.18966,8.9522 -0.16024,-0.0113 -1.571517,-0.89325 -3.136172,-1.95986 z"
     id="path1986" />
  <path
     style="fill:#37c8ab;fill-opacity:1;stroke:#37c8ab;stroke-width:0"
     d="m 146.99236,173.05546 c -0.83982,-1.15215 -12.35436,-14.46 -29.94368,-34.60718 C 91.766512,109.48954 84.60489,101.1927 82.538016,98.46719 c -1.15981,-1.529401 -1.322439,-1.947424 -0.914073,-2.349544 1.467399,-1.444949 19.791627,-10.946352 20.548727,-10.654841 0.84427,0.325074 71.85172,49.380115 83.9938,58.026575 5.67689,4.04256 6.85228,5.03253 6.44828,5.43107 -0.82045,0.80936 -42.66364,24.38504 -44.30441,24.96239 -0.33845,0.1191 -0.87242,-0.21611 -1.31798,-0.82738 z m 16.66015,-24.95075 c 2.09616,-0.99469 3.3748,-3.1665 3.53387,-6.00237 0.15612,-2.78343 -0.54141,-4.37107 -2.66634,-6.06883 -1.12586,-0.89952 -1.88877,-1.17255 -3.60345,-1.2896 -4.29935,-0.29348 -7.30655,2.55959 -7.28757,6.91405 0.0249,5.7059 4.93274,8.86247 10.02349,6.44675 z"
     id="path2439" />
  <path
     style="fill:#37c8ab;fill-opacity:1;stroke:#37c8ab;stroke-width:1.88976378;stroke-miterlimit:4;stroke-dasharray:none"
     d="m 145.90896,171.35345 c -1.13909,-1.30388 -5.02698,-5.78448 -8.63976,-9.9569 -3.61279,-4.17241 -16.26824,-18.73438 -28.12322,-32.35992 C 87.267042,103.89005 83.422484,99.386477 82.191058,97.461249 l -0.688253,-1.076023 1.47066,-0.928388 c 2.408685,-1.520536 12.18317,-6.721853 15.604139,-8.303463 1.749576,-0.80888 3.438356,-1.371953 3.752846,-1.251273 0.61458,0.235837 17.87804,12.066735 45.60058,31.250748 36.77733,25.44992 44.37931,30.84312 44.37931,31.48473 0,0.47889 -43.33554,25.08656 -44.17889,25.08656 -0.0833,0 -1.0834,-1.06681 -2.22249,-2.37069 z m 17.38414,-23.0014 c 2.84738,-1.31415 3.98276,-3.23606 3.98276,-6.74183 0,-2.59234 -0.78575,-4.31955 -2.5946,-5.7034 -1.24221,-0.95034 -1.69429,-1.06199 -4.3,-1.06199 -2.34935,0 -3.11418,0.15107 -3.95932,0.78206 -2.02734,1.51363 -2.58955,2.66546 -2.72875,5.59063 -0.10971,2.3052 0.0106,2.99364 0.77222,4.41765 1.6454,3.07655 5.4868,4.25881 8.82769,2.71688 z"
     id="path2626" />
  <path
     style="fill:#37c8ab;fill-opacity:1;stroke:#37c8ab;stroke-width:0.623043;stroke-miterlimit:4;stroke-dasharray:none"
     d="M 95.417727,194.30072 C 85.813982,187.87457 65.529531,173.9248 39.728083,156.00252 12.546871,137.12183 10.565702,135.71276 10.826755,135.4471 c 0.490706,-0.49939 29.713503,-16.97705 46.64721,-26.30265 l 8.51446,-4.68902 1.738594,1.92447 c 5.799129,6.4191 61.537941,70.01797 64.769151,73.90263 0.79362,0.95411 1.38707,1.78505 1.31877,1.84653 -0.79815,0.71847 -30.53689,17.0059 -31.05057,17.0059 -0.0671,0 -3.37307,-2.17541 -7.346643,-4.83424 z M 111.6013,176.41937 c 2.69746,-1.19184 4.39131,-4.17677 3.81167,-6.71701 -0.95965,-4.20566 -5.62,-6.53068 -10.28737,-5.1323 -1.50169,0.44992 -3.72374,2.25784 -4.41284,3.59041 -0.68113,1.31716 -0.60785,3.72682 0.15904,5.23005 1.03768,2.03403 2.49115,3.04016 5.4544,3.77566 1.08523,0.26937 3.86633,-0.12436 5.2751,-0.74681 z m -22.13394,-4.01353 c 1.433818,-1.12784 1.064304,-3.16855 -0.70655,-3.90206 -2.636847,-1.09222 -4.905136,2.48377 -2.59974,4.09853 0.975722,0.68342 2.286729,0.60552 3.30629,-0.19647 z m 5.740741,-12.02858 c 0.957908,-0.67095 0.997287,-2.51916 0.07336,-3.44309 -1.462676,-1.46267 -4.286017,-0.36831 -4.286017,1.66131 0,1.96898 2.45994,3.00943 4.212657,1.78178 z m 13.920489,-0.80554 c 1.68063,-1.68063 -0.51212,-5.09963 -2.56189,-3.99457 -2.26634,1.2218 -2.58919,3.32025 -0.64113,4.16726 1.48478,0.64557 2.43605,0.59428 3.20302,-0.17269 z M 58.051902,142.66707 c 2.48317,-1.6734 3.333964,-4.7171 2.065659,-7.38985 -1.722494,-3.62989 -7.27203,-3.88933 -9.59089,-0.44836 -1.040856,1.54452 -1.046181,4.64272 -0.01058,6.15409 1.647973,2.40506 5.266137,3.21366 7.535807,1.68412 z"
     id="path2665" />
  <path
     style="fill:#37c8ab;fill-opacity:1;stroke:#37c8ab;stroke-width:0.623043;stroke-miterlimit:4;stroke-dasharray:none"
     d="M 92.282789,207.66941 C 86.950795,204.01775 79.546832,198.92335 75.829536,196.3485 72.112241,193.77366 60.614175,185.8254 50.27828,178.68571 39.942384,171.54601 26.738154,162.42034 20.935546,158.40643 l -10.550196,-7.29801 -0.08618,-4.25796 c -0.0474,-2.34188 0.02678,-5.11993 0.164847,-6.17344 l 0.251028,-1.91547 5.277256,3.58466 c 12.557414,8.52984 70.237812,48.47093 78.977855,54.68862 6.997264,4.97788 6.451004,4.08629 6.841614,11.1667 0.18006,3.26397 0.29097,5.97336 0.24647,6.02087 -0.0445,0.0475 -4.443459,-2.90134 -9.775449,-6.55299 z"
     id="path2704" />
  <path
     style="fill:#5fd3bc;fill-opacity:1;stroke:#37c8ab;stroke-width:0.623043;stroke-miterlimit:4;stroke-dasharray:none"
     d="m 104.06514,214.71319 c -0.11241,-0.68011 -0.20602,-3.9883 -0.20802,-7.35153 l -0.004,-6.11498 15.24833,-8.44402 c 76.38149,-42.29753 74.88337,-41.47328 75.37969,-41.47328 0.41041,0 0.48743,10.59536 0.0957,13.16703 l -0.22283,1.46291 -5.11025,2.84461 c -2.81064,1.56454 -8.96767,4.97293 -13.68229,7.5742 -4.71462,2.60128 -11.16837,6.16855 -14.34167,7.92729 -3.1733,1.75873 -16.82262,9.31917 -30.33182,16.80097 -13.50919,7.48179 -25.02492,13.88228 -25.5905,14.22331 l -1.02834,0.62005 z"
     id="path2743" />
  <path
     style="fill:#5fd3bc;fill-opacity:1;stroke:#37c8ab;stroke-width:0.623043;stroke-miterlimit:4;stroke-dasharray:none"
     d="m 146.17089,172.67704 c -0.92079,-0.95199 -7.59511,-8.55555 -14.83182,-16.8968 -7.2367,-8.34125 -18.0505,-20.80066 -24.03066,-27.68758 C 86.496589,104.12518 82.279607,99.136065 81.030805,97.003604 l -0.568371,-0.970552 4.689541,-2.639217 c 9.079265,-5.1097 15.666675,-8.332877 17.030435,-8.332877 0.99551,0 84.84688,58.020122 89.10179,61.653092 2.2816,1.9481 2.12552,2.2733 -2.35891,4.91504 -16.35845,9.63661 -39.87529,22.77884 -40.76069,22.77884 -0.17574,0 -1.07291,-0.7789 -1.99371,-1.73089 z m 17.60259,-25.51331 c 1.70531,-0.98149 2.4094,-2.25893 2.63867,-4.78743 0.22763,-2.51035 -0.53697,-4.57907 -2.14607,-5.80638 -1.06635,-0.81335 -1.44596,-0.90099 -3.90271,-0.90099 -3.0155,0 -4.04903,0.4758 -5.16228,2.37653 -0.88201,1.50592 -0.87263,5.47309 0.0171,7.21705 1.52808,2.99528 5.22641,3.81715 8.55531,1.90122 z"
     id="path2856" />
  <path
     style="fill:#217867;fill-opacity:1;stroke:#37c8ab;stroke-width:0.623043;stroke-miterlimit:4;stroke-dasharray:none"
     d="m 101.13352,213.54276 c -0.49866,-0.19705 -0.90665,-0.47799 -0.90665,-0.62431 0,-0.14633 -0.19263,-0.26605 -0.428059,-0.26605 -0.507774,0 -9.474917,-6.12944 -55.226796,-37.74993 l -34.346576,-23.73794 0.03654,-5.43994 c 0.0201,-2.99197 0.130257,-5.8272 0.244802,-6.30051 0.204324,-0.84428 0.367249,-0.75157 8.61545,4.90272 35.862864,24.58463 78.845102,54.53792 80.663231,56.21227 1.023468,0.94254 1.458948,1.65737 1.714598,2.81447 0.32819,1.48543 0.89689,10.65517 0.65632,10.58256 -0.0639,-0.0193 -0.5242,-0.1963 -1.02286,-0.39334 z"
     id="path2932" />
  <path
     style="fill:#217867;fill-opacity:1;stroke:#37c8ab;stroke-width:0.623043;stroke-miterlimit:4;stroke-dasharray:none"
     d="m 104.39967,211.57679 c -0.11741,-2.03772 -0.21416,-5.12234 -0.21498,-6.8547 l -0.002,-3.14974 34.20571,-18.92967 c 51.70194,-28.6122 55.52866,-30.70611 55.73677,-30.498 0.25909,0.25909 0.1888,12.11887 -0.0768,12.95565 -0.14459,0.45558 -6.37727,4.07008 -20.06343,11.63534 -28.1724,15.57277 -67.14409,37.19838 -68.35092,37.92832 l -1.02137,0.61776 z"
     id="path2971" />
</svg>
