<?xml version="1.0" encoding="UTF-8" standalone="no"?>
<!-- Created with Inkscape (http://www.inkscape.org/) -->

<svg
   width="100%"
   height="100%"
   viewBox="0 0 210 297"
   version="1.1"
   id="svg5"
   sodipodi:docname="landTile7.svg"
   inkscape:version="1.1 (c68e22c387, 2021-05-23)"
   xmlns:inkscape="http://www.inkscape.org/namespaces/inkscape"
   xmlns:sodipodi="http://sodipodi.sourceforge.net/DTD/sodipodi-0.dtd"
   xmlns="http://www.w3.org/2000/svg"
   xmlns:svg="http://www.w3.org/2000/svg">
  <sodipodi:namedview
     id="namedview1698"
     pagecolor="#ffffff"
     bordercolor="#666666"
     borderopacity="1.0"
     inkscape:pageshadow="2"
     inkscape:pageopacity="0.0"
     inkscape:pagecheckerboard="0"
     showgrid="false"
     inkscape:zoom="2.7340067"
     inkscape:cx="105.15702"
     inkscape:cy="147.95135"
     inkscape:window-width="1920"
     inkscape:window-height="1001"
     inkscape:window-x="-9"
     inkscape:window-y="-9"
     inkscape:window-maximized="1"
     inkscape:current-layer="svg5" />
  <defs
     id="defs2" />
  <g
     id="layer1">
    <rect
       style="fill:#bb9400;stroke:#000000;stroke-width:0.832542;stroke-miterlimit:4;stroke-dasharray:none"
       id="rect1488"
       width="114.86641"
       height="106.92041"
       x="136.50136"
       y="12.134501"
       transform="matrix(0.82240508,0.56890236,-0.87458341,0.4848751,0,0)" />
    <rect
       style="fill:#bb9400;stroke:#000000;stroke-width:1.03338;stroke-miterlimit:4;stroke-dasharray:none"
       id="rect1936"
       width="107.95976"
       height="33.990139"
       x="117.38315"
       y="257.75235"
       transform="matrix(0.87408352,-0.48577567,0,1,0,0)" />
    <rect
       style="fill:#bb9400;stroke:#000000;stroke-width:0.803903;stroke-miterlimit:4;stroke-dasharray:none"
       id="rect2246"
       width="113.68499"
       height="35.761646"
       x="10.918944"
       y="130.02806"
       transform="matrix(0.82343046,0.5674172,0,1,0,0)" />
    <rect
       style="fill:#bb9400;stroke:#000000;stroke-width:0.734267;stroke-miterlimit:4;stroke-dasharray:none"
       id="rect1936-4"
       width="106.92042"
       height="17.327702"
       x="117.31606"
       y="257.61411"
       transform="matrix(0.87458342,-0.48487508,0,1,0,0)" />
    <rect
       style="fill:#bb9400;stroke:#000000;stroke-width:0.528459;stroke-miterlimit:4;stroke-dasharray:none"
       id="rect2246-4"
       width="113.81967"
       height="15.43545"
       x="7.2210975"
       y="132.15479"
       transform="matrix(0.82279149,0.56834334,0.02307547,0.99973373,0,0)" />
    <path
       style="fill:#008000;stroke:#000000;stroke-width:0;stroke-miterlimit:4;stroke-dasharray:none"
       d="M 230.16368,646.91519 C 143.66631,587.04442 64.377539,532.16145 53.966415,524.95305 l -18.929314,-13.1062 174.532229,-96.76291 174.53222,-96.7629 9.08044,6.31261 c 4.99425,3.47194 84.08519,58.12707 175.75767,121.45585 91.67248,63.32877 166.68374,115.4691 166.69171,115.8674 0.0116,0.60588 -297.06108,166.13063 -335.73485,187.06644 l -12.4649,6.7478 z"
       id="path2980"
       transform="scale(0.26458333)" />
    <path
       style="fill:#008000;stroke:#000000;stroke-width:0;stroke-miterlimit:4;stroke-dasharray:none"
       d="m 390.55452,803.43887 c -0.51547,-8.94559 -0.91706,-22.45638 -0.89243,-30.02397 l 0.0448,-13.75925 167.44598,-92.69392 c 92.09527,-50.98166 170.62157,-94.50687 174.50283,-96.72269 l 7.05688,-4.02876 -0.39102,30.76378 -0.39103,30.76378 -166.55939,92.3496 c -91.60766,50.79229 -169.55639,93.98457 -173.21939,95.98287 l -6.66,3.63327 z"
       id="path3019"
       transform="scale(0.26458333)" />
    <path
       style="fill:#008000;stroke:#000000;stroke-width:0;stroke-miterlimit:4;stroke-dasharray:none"
       d="M 211.09592,692.7571 36.208563,571.77943 V 545.0444 518.30937 l 3.982942,2.80188 c 2.190618,1.54103 80.238175,55.42618 173.439015,119.74476 93.20084,64.31859 170.1976,117.68653 171.10391,118.59544 1.74017,1.74514 3.83051,54.61783 2.15072,54.40019 -0.49603,-0.0643 -79.60118,-54.55682 -175.78923,-121.09454 z"
       id="path3058"
       transform="scale(0.26458333)" />
    <path
       style="fill:#784421;stroke:#000000;stroke-width:0;stroke-miterlimit:4;stroke-dasharray:none"
       d="M 212.18218,770.29946 C 117.38816,704.99826 39.003061,650.7618 37.993068,649.77399 c -1.406597,-1.3757 -1.745547,-10.19066 -1.448342,-37.66661 l 0.388008,-35.8706 172.352756,118.99485 c 94.79402,65.44716 173.17912,119.78643 174.18912,120.75393 1.40687,1.34768 1.7456,10.09483 1.44834,37.40123 l -0.38801,35.64213 z"
       id="path3134"
       transform="scale(0.26458333)" />
    <path
       style="fill:#c87137;stroke:#000000;stroke-width:0;stroke-miterlimit:4;stroke-dasharray:none"
       d="m 389.93656,854.17477 0.39175,-29.10735 175.61153,-97.36764 175.61153,-97.36763 v 28.6944 28.69441 l -176.00328,97.78058 -176.00327,97.78057 z"
       id="path3173"
       transform="scale(0.26458333)" />
    <path
       style="fill:#c87137;stroke:#000000;stroke-width:0;stroke-miterlimit:4;stroke-dasharray:none"
       d="M 347.6022,862.74305 C 328.88238,849.79713 268.26924,807.98454 212.90635,769.82617 157.54346,731.66781 95.463876,688.7885 74.951725,674.53884 l -37.29482,-25.90848 v -35.46947 -35.46947 l 3.982942,2.77989 c 2.190618,1.52895 59.056163,40.79293 126.367883,87.2533 67.31172,46.46037 143.40402,99.07063 169.09399,116.9117 l 46.70905,32.43831 v 34.65551 c 0,19.06052 -0.48882,34.63197 -1.08626,34.60322 -0.59744,-0.0287 -16.40248,-10.64438 -35.12231,-23.5903 z"
       id="path3249"
       transform="scale(0.26458333)" />
    <circle
       style="fill:#00ff00;stroke:#000000;stroke-width:0;stroke-miterlimit:4;stroke-dasharray:none"
       id="path3354"
       cx="55.18185"
       cy="137.95462"
       r="5.364902" />
    <ellipse
       style="fill:#00ff00;stroke:#000000;stroke-width:0;stroke-miterlimit:4;stroke-dasharray:none"
       id="path3356"
       cx="160.37224"
       cy="141.7867"
       rx="6.7061276"
       ry="6.8977313" />
    <ellipse
       style="fill:#00ff00;stroke:#000000;stroke-width:0;stroke-miterlimit:4;stroke-dasharray:none"
       id="path3358"
       cx="107.87285"
       cy="170.71884"
       rx="7.4725423"
       ry="6.3229203" />
    <ellipse
       style="fill:#ff0000;stroke:#000000;stroke-width:0;stroke-miterlimit:4;stroke-dasharray:none"
       id="path3382"
       cx="87.754463"
       cy="170.71884"
       rx="2.2992437"
       ry="2.10764" />
    <ellipse
       style="fill:#ff0000;stroke:#000000;stroke-width:0;stroke-miterlimit:4;stroke-dasharray:none"
       id="path3382-1"
       cx="93.502579"
       cy="158.64781"
       rx="2.2992437"
       ry="2.10764" />
    <ellipse
       style="fill:#ff0000;stroke:#000000;stroke-width:0;stroke-miterlimit:4;stroke-dasharray:none"
       id="path3382-8"
       cx="107.29803"
       cy="157.88141"
       rx="2.2992437"
       ry="2.10764" />
    <rect
       style="fill:#009bff;fill-opacity:1;stroke:#000000;stroke-width:0;stroke-miterlimit:4;stroke-dasharray:none"
       id="rect3521"
       width="104.18499"
       height="14.975807"
       x="124.21191"
       y="3.7682486"
       transform="matrix(0.65877971,0.75233589,-0.83046642,0.55706869,0,0)" />
  </g>
  <path
     style="fill:#666666;stroke:#37c8ab;stroke-width:0"
     d="m 145.18827,175.67851 c 0.49201,-0.36336 1.22248,-0.92589 1.62327,-1.25007 0.7044,-0.56974 -0.39651,-1.87416 -32.9903,-39.0888 C 95.275775,114.16497 80.102217,96.733169 80.102217,96.602296 c 0,-0.130873 4.842354,-2.917774 10.760787,-6.193112 l 10.760786,-5.955161 34.50245,23.856537 c 34.42243,23.80121 55.24317,38.25093 57.12664,39.64622 l 0.99479,0.73695 -4.12845,2.33329 c -13.57531,7.67239 -44.76311,25.00329 -45.24868,25.14445 -0.31725,0.0922 -0.17427,-0.12961 0.31773,-0.49296 z m 19.06623,-28.1114 c 4.05035,-2.8069 3.78998,-9.27188 -0.47794,-11.86736 -2.55835,-1.55583 -5.58279,-1.19238 -7.96161,0.95674 -1.72108,1.55489 -2.3314,3.23534 -2.11645,5.82738 0.44304,5.34251 6.18909,8.10951 10.556,5.08324 z"
     id="path1831" />
  <path
     style="fill:#666666;stroke:#37c8ab;stroke-width:0"
     d="M 56.200059,167.72025 C 30.883091,150.1655 10.164034,135.65814 10.157711,135.48168 c -0.01315,-0.36693 55.66607,-31.31267 56.060604,-31.15771 0.142176,0.0558 15.517098,17.52961 34.166495,38.8306 27.54508,31.46147 33.8168,38.81296 33.422,39.17607 -0.2673,0.24585 -5.25921,3.08215 -11.09314,6.3029 -16.80151,9.27565 -19.35056,10.66159 -19.93411,10.8383 -0.31501,0.0954 -20.151055,-13.42614 -46.579501,-31.75159 z m 55.106301,8.81291 c 3.0325,-1.26706 4.76309,-4.47368 3.92685,-7.27608 -1.55326,-5.20523 -9.00978,-6.74056 -13.06102,-2.68932 -3.122873,3.12288 -2.282074,7.6731 1.79034,9.68891 1.83895,0.91026 5.49735,1.048 7.34383,0.27649 z m -21.555081,-4.7325 c 0.701278,-0.94338 0.71735,-1.09924 0.207395,-2.0117 -0.439242,-0.78593 -0.862635,-1.01184 -2.061334,-1.09988 -1.227564,-0.0902 -1.617128,0.0442 -2.091491,0.72147 -0.784515,1.12005 -0.733703,1.98179 0.17015,2.88565 1.054738,1.05473 2.792403,0.82665 3.77528,-0.49554 z m 5.265857,-11.43408 c 1.069039,-0.74879 1.13465,-2.89033 0.105431,-3.44115 -1.864556,-0.99788 -4.047444,7.3e-4 -4.047444,1.8519 0,1.12581 1.137528,2.15863 2.377463,2.15863 0.413401,0 1.117452,-0.25622 1.56455,-0.56938 z m 13.980404,-0.89367 c 1.92406,-1.92407 -0.32796,-4.77923 -2.82879,-3.58638 -1.39762,0.66665 -1.63472,2.87087 -0.40171,3.7345 1.12766,0.78985 2.34851,0.73387 3.2305,-0.14812 z M 57.565133,142.87205 c 2.743822,-1.14644 3.912488,-4.80598 2.396288,-7.50369 -2.174658,-3.86928 -8.062434,-3.75428 -9.710316,0.18966 -2.027284,4.85197 2.462053,9.34131 7.314028,7.31403 z"
     id="path1870" />
  <path
     style="fill:#666666;stroke:#37c8ab;stroke-width:0"
     d="m 103.74494,215.89275 c -0.0999,-0.35249 -0.29403,-3.78981 -0.43128,-7.63847 l -0.24955,-6.99756 3.6068,-2.01134 c 18.75041,-10.45616 88.36198,-48.91656 88.53675,-48.91656 0.32681,0 -0.18405,15.43936 -0.52149,15.76058 -0.15557,0.14809 -19.95178,11.1627 -43.99159,24.47691 -24.03981,13.31422 -44.39706,24.6036 -45.23833,25.08751 -1.4015,0.80616 -1.5448,0.82617 -1.71131,0.23893 z"
     id="path1909" />
  <path
     style="fill:#4d4d4d;stroke:#37c8ab;stroke-width:0"
     d="M 94.184113,209.4968 C 89.758374,206.46158 71.488485,193.85212 53.58436,181.47576 35.680234,169.09941 18.521352,157.23829 15.45351,155.11773 l -5.5778942,-3.85558 v -6.84185 -6.84184 l 33.9245692,23.4322 c 31.055048,21.45019 57.496075,39.74547 57.836135,40.01844 0.2446,0.19634 0.81736,9.95231 0.70438,11.99806 l -0.10979,1.98821 z"
     id="path1948" />
  <path
     style="fill:#808080;stroke:#37c8ab;stroke-width:0"
     d="m 103.7404,212.78294 c -0.1126,-1.86082 -0.28236,-5.19384 -0.37724,-7.40671 l -0.17251,-4.0234 30.75828,-17.008 c 65.0961,-35.99534 60.79607,-33.69429 61.00304,-32.64427 0.10059,0.5103 0.0854,3.88695 -0.0337,7.50367 -0.19512,5.92386 -0.28506,6.61675 -0.90717,6.98845 -2.90546,1.73601 -89.74074,49.97358 -89.96034,49.97358 -0.0581,0 -0.19775,-1.52249 -0.31034,-3.38332 z"
     id="path2024" />
  <path
     style="fill:#b3b3b3;stroke:#37c8ab;stroke-width:0"
     d="m 146.90645,174.2817 c 0.37208,-0.96962 1.75829,0.67122 -35.68589,-42.24106 C 96.036706,114.63944 82.913987,99.591311 82.058959,98.600354 81.203932,97.609397 80.57956,96.676945 80.671467,96.528237 81.05759,95.903477 101.40076,84.81121 101.84664,84.982311 c 0.4094,0.157102 69.40429,47.832179 86.63059,59.861239 l 5.41258,3.77959 -1.02342,0.62802 c -2.73002,1.67529 -45.75372,25.58382 -46.03841,25.58382 -0.0736,0 -0.0383,-0.24898 0.0785,-0.55328 z m 17.5821,-26.73858 c 1.86145,-1.48736 2.66413,-3.175 2.66482,-5.60283 7.4e-4,-2.64194 -1.10927,-4.90059 -3.03458,-6.17471 -1.21052,-0.80108 -1.90238,-0.98171 -3.76021,-0.98171 -1.9663,0 -2.49048,0.15483 -3.84433,1.13556 -2.10054,1.52161 -2.89356,3.09239 -2.89356,5.73137 0,4.59151 2.8112,7.36962 7.21023,7.12533 1.87197,-0.10395 2.51652,-0.32123 3.65763,-1.23301 z"
     id="path2100" />
  <path
     style="fill:#1a1a1a;stroke:#37c8ab;stroke-width:0"
     d="m 99.853448,233.41292 c -0.502925,-0.35891 -5.440732,-3.75474 -10.972906,-7.54629 -10.263307,-7.03409 -69.74868,-48.08739 -75.36144,-52.01002 l -3.094841,-2.16292 -0.09777,-9.24238 -0.09777,-9.24238 2.292351,1.61997 c 1.260793,0.89098 16.941181,11.73746 34.845306,24.10329 17.904126,12.36583 37.367319,25.81686 43.25154,29.89117 l 10.698582,7.40784 v 8.92874 c 0,4.9108 -0.12344,8.92351 -0.27432,8.91714 -0.15088,-0.006 -0.68581,-0.30524 -1.188732,-0.66416 z"
     id="path2176" />
  <path
     style="fill:#1a1a1a;stroke:#37c8ab;stroke-width:0"
     d="m 103.32877,225.98408 c 0.14361,-4.0922 0.36683,-7.55068 0.49603,-7.6855 0.12921,-0.13483 20.89143,-11.69565 46.13825,-25.6907 l 45.90333,-25.44556 0.0994,7.19861 c 0.0754,5.46279 -0.0128,7.3008 -0.36577,7.6224 -0.35928,0.32732 -87.87452,49.00666 -91.67056,50.99069 l -0.8618,0.45042 z"
     id="path2252" />
  <path
     style="fill:#999999;stroke:#37c8ab;stroke-width:0"
     d="m 107.3516,176.84693 c -0.20117,-0.0678 -0.98651,-0.22712 -1.7452,-0.35411 -1.55674,-0.26055 -3.67493,-1.9438 -4.5322,-3.60157 -1.268252,-2.45253 0.21343,-6.03849 3.05632,-7.39692 4.39996,-2.10246 9.85999,-0.0426 10.94995,4.13092 0.57968,2.21963 -0.96868,5.01325 -3.47716,6.2736 -1.34222,0.67439 -3.58177,1.17378 -4.25171,0.94808 z"
     id="path2404" />
  <path
     style="fill:#999999;stroke:#37c8ab;stroke-width:0"
     d=""
     id="path2443" />
  <path
     style="fill:#999999;stroke:#37c8ab;stroke-width:0"
     d="m 157.82697,148.00185 c -5.58776,-2.59736 -4.96051,-11.08738 0.93646,-12.67528 4.082,-1.09916 8.00438,2.03753 8.01873,6.41251 0.0117,3.56357 -2.53868,6.41952 -5.93404,6.64504 -1.14149,0.0758 -2.37009,-0.0796 -3.02115,-0.38227 z"
     id="path2482" />
  <path
     style="fill:#999999;stroke:#37c8ab;stroke-width:0"
     d="m 52.413385,142.29683 c -4.253661,-2.59361 -2.148866,-9.529 2.890188,-9.5233 2.488044,0.003 5.043267,2.56993 5.046045,5.06953 0.0018,1.57332 -1.236959,3.78272 -2.558447,4.56335 -1.3949,0.82398 -3.931452,0.7723 -5.377786,-0.10958 z"
     id="path2521" />
</svg>
