<?xml version="1.0" encoding="UTF-8" standalone="no"?>
<!-- Created with Inkscape (http://www.inkscape.org/) -->

<svg
   width="100%"
   height="100%"
   viewBox="0 0 210 297"
   version="1.1"
   id="svg5"
   xmlns="http://www.w3.org/2000/svg"
   xmlns:svg="http://www.w3.org/2000/svg">
  <defs
     id="defs2" />
  <g
     id="layer1"
     transform="translate(-0.36711989,-63.511743)">
    <ellipse
       style="fill:#e6cea0;fill-opacity:1;stroke:#d2ba8c;stroke-width:1.71599;stroke-miterlimit:4;stroke-dasharray:none;stroke-opacity:1"
       id="path846"
       cx="101.37981"
       cy="157.42427"
       rx="34.012844"
       ry="31.514046" />
    <ellipse
       style="fill:#e6cea0;fill-opacity:1;stroke:#d2ba8c;stroke-width:1.82294;stroke-miterlimit:4;stroke-dasharray:none"
       id="path1156-61-2"
       cx="117.08654"
       cy="139.93269"
       rx="3.9737983"
       ry="3.259856" />
    <ellipse
       style="fill:#e6cea0;fill-opacity:1;stroke:#d2ba8c;stroke-width:1.82294;stroke-miterlimit:4;stroke-dasharray:none"
       id="path1156-61-8"
       cx="98.52404"
       cy="165.63461"
       rx="3.9737983"
       ry="3.259856" />
    <ellipse
       style="fill:#e6cea0;fill-opacity:1;stroke:#d2ba8c;stroke-width:1.82294;stroke-miterlimit:4;stroke-dasharray:none"
       id="path1156-61"
       cx="124.9399"
       cy="155.9964"
       rx="3.9737983"
       ry="3.259856" />
    <ellipse
       style="fill:#e6cea0;fill-opacity:1;stroke:#d2ba8c;stroke-width:1.17811;stroke-miterlimit:4;stroke-dasharray:none"
       id="path1156-4"
       cx="115.65865"
       cy="174.20193"
       rx="2.154386"
       ry="2.5113573" />
    <ellipse
       style="fill:#e6cea0;fill-opacity:1;stroke:#d2ba8c;stroke-width:1.82294;stroke-miterlimit:4;stroke-dasharray:none"
       id="path1156-61-4"
       cx="80.675484"
       cy="163.49278"
       rx="3.9737983"
       ry="3.259856" />
    <ellipse
       style="fill:#e6cea0;fill-opacity:1;stroke:#d2ba8c;stroke-width:1.82294;stroke-miterlimit:4;stroke-dasharray:none"
       id="path1156-61-7"
       cx="86.387024"
       cy="144.93028"
       rx="3.9737983"
       ry="3.259856" />
  </g>
  <rect
     style="fill:#4d4d4d;stroke:#000000;stroke-width:6.91042;stroke-miterlimit:4;stroke-dasharray:none"
     id="rect3343"
     width="40.531059"
     height="43.353806"
     x="-114.10203"
     y="148.69446"
     ry="6.954257"
     transform="matrix(0.78201768,-0.62325625,0.70222422,0.71195586,0,0)" />
  <rect
     style="fill:#4d4d4d;stroke:#000000;stroke-width:1.90748;stroke-miterlimit:4;stroke-dasharray:none"
     id="rect3493"
     width="10.833067"
     height="41.652336"
     x="-36.836826"
     y="107.10003"
     ry="4.0970402"
     transform="matrix(0.71575182,-0.69835473,0.44029745,0.89785197,0,0)" />
  <rect
     style="fill:#4d4d4d;stroke:#000000;stroke-width:2.18294;stroke-miterlimit:4;stroke-dasharray:none"
     id="rect3493-5"
     width="12.443939"
     height="47.489384"
     x="-51.437805"
     y="96.524513"
     ry="4.6711888"
     transform="matrix(0.72384659,-0.68996095,0.44862097,0.89372212,0,0)" />
  <rect
     style="fill:#4d4d4d;stroke:#000000;stroke-width:1.77659;stroke-miterlimit:4;stroke-dasharray:none"
     id="rect3493-2"
     width="9.9967785"
     height="39.154957"
     x="-57.230186"
     y="104.30936"
     ry="3.8513913"
     transform="matrix(0.69477379,-0.71922832,0.41955455,0.90773013,0,0)" />
  <rect
     style="fill:#4d4d4d;stroke:#000000;stroke-width:1.3681;stroke-miterlimit:4;stroke-dasharray:none"
     id="rect3493-54"
     width="7.6635242"
     height="30.288164"
     x="-63.49942"
     y="112.91856"
     ry="2.9792287"
     transform="matrix(0.6840232,-0.72946026,0.40935312,0.91237603,0,0)" />
  <rect
     style="fill:#4d4d4d;stroke:#000000;stroke-width:3.81125;stroke-miterlimit:4;stroke-dasharray:none"
     id="rect3343-3"
     width="18.958838"
     height="28.192245"
     x="65.233948"
     y="137.12749"
     ry="4.5222354"
     transform="matrix(0.97855829,0.20597009,-0.0306098,0.99953141,0,0)" />
  <rect
     style="fill:#4d4d4d;stroke:#000000;stroke-width:2.99253;stroke-miterlimit:4;stroke-dasharray:none"
     id="rect3343-3-5"
     width="11.691892"
     height="28.183697"
     x="-16.117811"
     y="146.24091"
     ry="4.520864"
     transform="matrix(0.98547143,-0.16984131,0.47328023,0.88091193,0,0)" />
  <rect
     style="fill:#4d4d4d;stroke:#000000;stroke-width:6.91042;stroke-miterlimit:4;stroke-dasharray:none"
     id="rect3343-32"
     width="40.531059"
     height="43.353806"
     x="-258.19565"
     y="24.099779"
     ry="6.954257"
     transform="matrix(-0.78201768,-0.62325625,-0.70222422,0.71195586,0,0)" />
  <rect
     style="fill:#4d4d4d;stroke:#000000;stroke-width:3.81125;stroke-miterlimit:4;stroke-dasharray:none"
     id="rect3343-3-2"
     width="18.958838"
     height="28.192245"
     x="-137.98502"
     y="180.10597"
     ry="4.5222354"
     transform="matrix(-0.97855829,0.20597009,0.0306098,0.99953141,0,0)" />
  <rect
     style="fill:#4d4d4d;stroke:#000000;stroke-width:2.99253;stroke-miterlimit:4;stroke-dasharray:none"
     id="rect3343-3-5-4"
     width="11.691892"
     height="28.183697"
     x="-202.58109"
     y="111.54068"
     ry="4.520864"
     transform="matrix(-0.98547143,-0.16984131,-0.47328023,0.88091193,0,0)" />
  <rect
     style="fill:#4d4d4d;stroke:#000000;stroke-width:1.90748;stroke-miterlimit:4;stroke-dasharray:none"
     id="rect3493-7"
     width="10.833067"
     height="41.652336"
     x="-226.5116"
     y="-39.203533"
     ry="4.0970402"
     transform="matrix(-0.71575182,-0.69835473,-0.44029745,0.89785197,0,0)" />
  <rect
     style="fill:#4d4d4d;stroke:#000000;stroke-width:2.18294;stroke-miterlimit:4;stroke-dasharray:none"
     id="rect3493-5-0"
     width="12.443939"
     height="47.489384"
     x="-238.15781"
     y="-42.286034"
     ry="4.6711888"
     transform="matrix(-0.72384659,-0.68996095,-0.44862097,0.89372212,0,0)" />
  <rect
     style="fill:#4d4d4d;stroke:#000000;stroke-width:1.77659;stroke-miterlimit:4;stroke-dasharray:none"
     id="rect3493-2-6"
     width="9.9967785"
     height="39.154957"
     x="-251.57877"
     y="-44.423775"
     ry="3.8513913"
     transform="matrix(-0.69477379,-0.71922832,-0.41955455,0.90773013,0,0)" />
  <rect
     style="fill:#4d4d4d;stroke:#000000;stroke-width:1.3681;stroke-miterlimit:4;stroke-dasharray:none"
     id="rect3493-54-4"
     width="7.6635242"
     height="30.288164"
     x="-261.92688"
     y="-44.520481"
     ry="2.9792287"
     transform="matrix(-0.6840232,-0.72946026,-0.40935312,0.91237603,0,0)" />
</svg>
