<?xml version="1.0" encoding="UTF-8" standalone="no"?>
<!-- Created with Inkscape (http://www.inkscape.org/) -->

<svg
   width="100%"
   height="100%"
   viewBox="0 0 210 297"
   version="1.1"
   id="svg5"
   xmlns="http://www.w3.org/2000/svg"
   xmlns:svg="http://www.w3.org/2000/svg">
  <defs
     id="defs2" />
  <g
     id="layer1">
    <rect
       style="fill:#ffffff;stroke:#000000;stroke-width:1.91409;stroke-miterlimit:4;stroke-dasharray:none"
       id="rect974"
       width="23.21419"
       height="23.148386"
       x="199.17818"
       y="35.039078"
       transform="matrix(0.63300977,0.7741438,-0.65909772,0.75205731,0,0)" />
    <rect
       style="fill:#ffffff;stroke:#000000;stroke-width:2;stroke-miterlimit:4;stroke-dasharray:none"
       id="rect1182"
       width="18.736099"
       height="36.459435"
       x="94.186874"
       y="45.574295"
       ry="9.3680496" />
    <rect
       style="fill:#ffffff;stroke:#000000;stroke-width:2;stroke-miterlimit:4;stroke-dasharray:none"
       id="rect846"
       width="27.811499"
       height="105.6813"
       x="89.623947"
       y="92.937714" />
    <rect
       style="fill:#ffffff;stroke:#000000;stroke-width:2;stroke-miterlimit:4;stroke-dasharray:none"
       id="rect1180"
       width="57.72744"
       height="15.191432"
       x="75.450783"
       y="77.982681" />
    <rect
       style="fill:#000000;stroke:#000000;stroke-width:1.48922;stroke-miterlimit:4;stroke-dasharray:none"
       id="rect1289"
       width="31.766264"
       height="2.9717524"
       x="173.12222"
       y="69.35553"
       ry="1.4858762"
       transform="matrix(0.81818177,0.57495964,-0.7247032,0.68906115,0,0)" />
    <path
       style="fill:#ff0000;stroke:#ff0000;stroke-width:7.55905522;stroke-miterlimit:4;stroke-dasharray:none"
       d="m 342.58473,660.28901 c 0,-47.36856 0.36279,-86.12466 0.80619,-86.12466 0.44341,0 20.37336,13.77995 44.28878,30.6221 23.91542,16.84216 45.08379,30.6221 47.04084,30.6221 3.38662,0 3.55825,2.6772 3.55825,55.50256 v 55.50255 h -47.84703 -47.84703 z"
       id="path1506"
       transform="scale(0.26458333)" />
    <path
       style="fill:#ff0000;stroke:#ff0000;stroke-width:14.4671;stroke-miterlimit:4;stroke-dasharray:none"
       d="m 365.23318,782.17926 -20.41387,-25.23925 21.84928,-0.53921 c 12.01711,-0.29656 31.77618,-0.29656 43.90904,0 l 22.05975,0.53921 -22.18833,25.35892 c -12.20358,13.94741 -22.7764,25.30508 -23.49516,25.23926 -0.71876,-0.0658 -10.49308,-11.47734 -21.72071,-25.35893 z"
       id="path1582"
       transform="scale(0.26458333)" />
    <ellipse
       style="fill:#ff0000;stroke:#ff0000;stroke-width:2;stroke-miterlimit:4;stroke-dasharray:none"
       id="path1643"
       cx="90.389015"
       cy="224.83318"
       rx="1.7723337"
       ry="4.0510483" />
    <ellipse
       style="fill:#ff0000;stroke:#ff0000;stroke-width:2;stroke-miterlimit:4;stroke-dasharray:none"
       id="path1645"
       cx="102.28897"
       cy="231.66934"
       rx="1.5191431"
       ry="5.3170013" />
    <ellipse
       style="fill:#ff0000;stroke:#ff0000;stroke-width:2;stroke-miterlimit:4;stroke-dasharray:none"
       id="path1647"
       cx="118.99955"
       cy="226.35233"
       rx="2.5319052"
       ry="4.0510483" />
    <ellipse
       style="fill:#ff0000;stroke:#ff0000;stroke-width:2;stroke-miterlimit:4;stroke-dasharray:none"
       id="path1649"
       cx="89.376251"
       cy="249.39267"
       rx="1.7723337"
       ry="4.8106203" />
    <ellipse
       style="fill:#ff0000;stroke:#ff0000;stroke-width:2;stroke-miterlimit:4;stroke-dasharray:none"
       id="path1651"
       cx="115.20169"
       cy="252.68416"
       rx="1.7723337"
       ry="3.0382862" />
    <ellipse
       style="fill:#ff0000;stroke:#ff0000;stroke-width:2;stroke-miterlimit:4;stroke-dasharray:none"
       id="path1653"
       cx="100.51664"
       cy="260.78625"
       rx="2.7850957"
       ry="4.0510483" />
    <ellipse
       style="fill:#ff0000;stroke:#ff0000;stroke-width:2;stroke-miterlimit:4;stroke-dasharray:none"
       id="path1655"
       cx="113.68255"
       cy="272.93936"
       rx="2.7850957"
       ry="4.5574293" />
    <ellipse
       style="fill:#ff0000;stroke:#ff0000;stroke-width:2;stroke-miterlimit:4;stroke-dasharray:none"
       id="path1759"
       cx="115.46814"
       cy="205.46411"
       rx="3.025027"
       ry="7.2159309" />
    <path
       style="fill:#666666;stroke:#4d4d4d;stroke-width:14.4671;stroke-miterlimit:4;stroke-dasharray:none"
       d="m 393.30258,585.64764 c -23.98793,-16.84215 -45.21269,-30.6221 -47.16614,-30.6221 -3.41416,0 -3.55171,-3.85429 -3.55171,-99.52182 V 355.9819 h 47.84703 47.84703 v 130.14392 c 0,71.57916 -0.3064,130.14392 -0.68089,130.14392 -0.37449,0 -20.30738,-13.77994 -44.29532,-30.6221 z"
       id="path2294"
       transform="scale(0.26458333)" />
    <path
       style="fill:#784421;stroke:#502d16;stroke-width:14.4671;stroke-miterlimit:4;stroke-dasharray:none"
       d="m 363.22629,286.60371 c -1.79387,-3.14057 -2.45969,-15.44483 -2.45969,-45.45468 0,-37.70635 0.3202,-41.69205 3.82777,-47.64697 12.6147,-21.41642 40.97397,-21.41642 53.58867,0 3.50757,5.95492 3.82776,9.94062 3.82776,47.64697 0,30.00985 -0.66582,42.31411 -2.45969,45.45468 -2.35894,4.12985 -3.51245,4.30623 -28.16241,4.30623 -24.64995,0 -25.80347,-0.17638 -28.16241,-4.30623 z"
       id="path2407"
       transform="scale(0.26458333)" />
    <rect
       style="fill:#4d4d4d;stroke:#4d4d4d;stroke-width:0.82606;stroke-miterlimit:4;stroke-dasharray:none"
       id="rect2897-8"
       width="2.1666882"
       height="64.525108"
       x="101.89462"
       y="90.42749"
       ry="2.7457476" />
    <path
       style="fill:#4d4d4d;stroke:#1a1a1a;stroke-width:14.4671;stroke-miterlimit:4;stroke-dasharray:none"
       d="m 288.99606,323.44592 v -24.88046 h 105.26346 105.26347 v 24.88046 24.88046 H 394.25952 288.99606 Z"
       id="path2559"
       transform="scale(0.26458333)" />
    <rect
       style="fill:#4d4d4d;stroke:#1a1a1a;stroke-width:1.49343;stroke-miterlimit:4;stroke-dasharray:none"
       id="rect2694"
       width="1.5364141"
       height="18.611553"
       x="136.7892"
       y="18.293243"
       ry="0.74446201"
       transform="matrix(0.93326215,0.359196,-0.92202197,0.38713756,0,0)" />
    <rect
       style="fill:#4d4d4d;stroke:#1a1a1a;stroke-width:1.49343;stroke-miterlimit:4;stroke-dasharray:none"
       id="rect2694-7"
       width="1.5364141"
       height="18.611553"
       x="154.69272"
       y="33.735619"
       ry="0.74446201"
       transform="matrix(0.93326215,0.359196,-0.92202197,0.38713756,0,0)" />
    <rect
       style="fill:#4d4d4d;stroke:#4d4d4d;stroke-width:0.534391;stroke-miterlimit:4;stroke-dasharray:none"
       id="rect2897"
       width="2.4583571"
       height="23.79991"
       x="114.9155"
       y="141.79291"
       ry="1.0127615" />
  </g>
</svg>
